<mxfile host="app.diagrams.net" modified="2023-11-11T21:02:49.909Z" agent="Mozilla/5.0 (Windows NT 10.0; Win64; x64) AppleWebKit/537.36 (KHTML, like Gecko) Chrome/119.0.0.0 Safari/537.36 Edg/119.0.0.0" etag="OXtnqZkq4Gj3iz3xpVyB" version="22.1.0" type="github" pages="5">
  <diagram id="R2lEEEUBdFMjLlhIrx00" name="Entity Relationship Diagram">
    <mxGraphModel dx="1282" dy="569" grid="1" gridSize="10" guides="1" tooltips="1" connect="1" arrows="1" fold="1" page="1" pageScale="1" pageWidth="719" pageHeight="719" math="0" shadow="0" extFonts="Permanent Marker^https://fonts.googleapis.com/css?family=Permanent+Marker">
      <root>
        <mxCell id="0" />
        <mxCell id="1" parent="0" />
        <mxCell id="esyhRSqTZg4yiv9LOF1y-26" value="Student" style="shape=table;startSize=30;container=1;collapsible=1;childLayout=tableLayout;fixedRows=1;rowLines=0;fontStyle=1;align=center;resizeLast=1;strokeWidth=2;" parent="1" vertex="1">
          <mxGeometry x="120" y="40" width="180" height="180" as="geometry" />
        </mxCell>
        <mxCell id="esyhRSqTZg4yiv9LOF1y-27" value="" style="shape=tableRow;horizontal=0;startSize=0;swimlaneHead=0;swimlaneBody=0;fillColor=none;collapsible=0;dropTarget=0;points=[[0,0.5],[1,0.5]];portConstraint=eastwest;top=0;left=0;right=0;bottom=1;" parent="esyhRSqTZg4yiv9LOF1y-26" vertex="1">
          <mxGeometry y="30" width="180" height="30" as="geometry" />
        </mxCell>
        <mxCell id="esyhRSqTZg4yiv9LOF1y-28" value="PK" style="shape=partialRectangle;connectable=0;fillColor=none;top=0;left=0;bottom=0;right=0;fontStyle=1;overflow=hidden;" parent="esyhRSqTZg4yiv9LOF1y-27" vertex="1">
          <mxGeometry width="30" height="30" as="geometry">
            <mxRectangle width="30" height="30" as="alternateBounds" />
          </mxGeometry>
        </mxCell>
        <mxCell id="esyhRSqTZg4yiv9LOF1y-29" value="id" style="shape=partialRectangle;connectable=0;fillColor=none;top=0;left=0;bottom=0;right=0;align=left;spacingLeft=6;fontStyle=1;overflow=hidden;" parent="esyhRSqTZg4yiv9LOF1y-27" vertex="1">
          <mxGeometry x="30" width="150" height="30" as="geometry">
            <mxRectangle width="150" height="30" as="alternateBounds" />
          </mxGeometry>
        </mxCell>
        <mxCell id="esyhRSqTZg4yiv9LOF1y-30" value="" style="shape=tableRow;horizontal=0;startSize=0;swimlaneHead=0;swimlaneBody=0;fillColor=none;collapsible=0;dropTarget=0;points=[[0,0.5],[1,0.5]];portConstraint=eastwest;top=0;left=0;right=0;bottom=0;" parent="esyhRSqTZg4yiv9LOF1y-26" vertex="1">
          <mxGeometry y="60" width="180" height="30" as="geometry" />
        </mxCell>
        <mxCell id="esyhRSqTZg4yiv9LOF1y-31" value="" style="shape=partialRectangle;connectable=0;fillColor=none;top=0;left=0;bottom=0;right=0;editable=1;overflow=hidden;" parent="esyhRSqTZg4yiv9LOF1y-30" vertex="1">
          <mxGeometry width="30" height="30" as="geometry">
            <mxRectangle width="30" height="30" as="alternateBounds" />
          </mxGeometry>
        </mxCell>
        <mxCell id="esyhRSqTZg4yiv9LOF1y-32" value="fname" style="shape=partialRectangle;connectable=0;fillColor=none;top=0;left=0;bottom=0;right=0;align=left;spacingLeft=6;overflow=hidden;" parent="esyhRSqTZg4yiv9LOF1y-30" vertex="1">
          <mxGeometry x="30" width="150" height="30" as="geometry">
            <mxRectangle width="150" height="30" as="alternateBounds" />
          </mxGeometry>
        </mxCell>
        <mxCell id="esyhRSqTZg4yiv9LOF1y-33" value="" style="shape=tableRow;horizontal=0;startSize=0;swimlaneHead=0;swimlaneBody=0;fillColor=none;collapsible=0;dropTarget=0;points=[[0,0.5],[1,0.5]];portConstraint=eastwest;top=0;left=0;right=0;bottom=0;" parent="esyhRSqTZg4yiv9LOF1y-26" vertex="1">
          <mxGeometry y="90" width="180" height="30" as="geometry" />
        </mxCell>
        <mxCell id="esyhRSqTZg4yiv9LOF1y-34" value="" style="shape=partialRectangle;connectable=0;fillColor=none;top=0;left=0;bottom=0;right=0;editable=1;overflow=hidden;" parent="esyhRSqTZg4yiv9LOF1y-33" vertex="1">
          <mxGeometry width="30" height="30" as="geometry">
            <mxRectangle width="30" height="30" as="alternateBounds" />
          </mxGeometry>
        </mxCell>
        <mxCell id="esyhRSqTZg4yiv9LOF1y-35" value="lname" style="shape=partialRectangle;connectable=0;fillColor=none;top=0;left=0;bottom=0;right=0;align=left;spacingLeft=6;overflow=hidden;" parent="esyhRSqTZg4yiv9LOF1y-33" vertex="1">
          <mxGeometry x="30" width="150" height="30" as="geometry">
            <mxRectangle width="150" height="30" as="alternateBounds" />
          </mxGeometry>
        </mxCell>
        <mxCell id="esyhRSqTZg4yiv9LOF1y-36" value="" style="shape=tableRow;horizontal=0;startSize=0;swimlaneHead=0;swimlaneBody=0;fillColor=none;collapsible=0;dropTarget=0;points=[[0,0.5],[1,0.5]];portConstraint=eastwest;top=0;left=0;right=0;bottom=0;" parent="esyhRSqTZg4yiv9LOF1y-26" vertex="1">
          <mxGeometry y="120" width="180" height="30" as="geometry" />
        </mxCell>
        <mxCell id="esyhRSqTZg4yiv9LOF1y-37" value="" style="shape=partialRectangle;connectable=0;fillColor=none;top=0;left=0;bottom=0;right=0;editable=1;overflow=hidden;" parent="esyhRSqTZg4yiv9LOF1y-36" vertex="1">
          <mxGeometry width="30" height="30" as="geometry">
            <mxRectangle width="30" height="30" as="alternateBounds" />
          </mxGeometry>
        </mxCell>
        <mxCell id="esyhRSqTZg4yiv9LOF1y-38" value="password" style="shape=partialRectangle;connectable=0;fillColor=none;top=0;left=0;bottom=0;right=0;align=left;spacingLeft=6;overflow=hidden;" parent="esyhRSqTZg4yiv9LOF1y-36" vertex="1">
          <mxGeometry x="30" width="150" height="30" as="geometry">
            <mxRectangle width="150" height="30" as="alternateBounds" />
          </mxGeometry>
        </mxCell>
        <mxCell id="esyhRSqTZg4yiv9LOF1y-55" value="" style="shape=tableRow;horizontal=0;startSize=0;swimlaneHead=0;swimlaneBody=0;fillColor=none;collapsible=0;dropTarget=0;points=[[0,0.5],[1,0.5]];portConstraint=eastwest;top=0;left=0;right=0;bottom=1;" parent="esyhRSqTZg4yiv9LOF1y-26" vertex="1">
          <mxGeometry y="150" width="180" height="30" as="geometry" />
        </mxCell>
        <mxCell id="esyhRSqTZg4yiv9LOF1y-56" value="FK" style="shape=partialRectangle;connectable=0;fillColor=none;top=0;left=0;bottom=0;right=0;fontStyle=0;overflow=hidden;" parent="esyhRSqTZg4yiv9LOF1y-55" vertex="1">
          <mxGeometry width="30" height="30" as="geometry">
            <mxRectangle width="30" height="30" as="alternateBounds" />
          </mxGeometry>
        </mxCell>
        <mxCell id="esyhRSqTZg4yiv9LOF1y-57" value="faculty" style="shape=partialRectangle;connectable=0;fillColor=none;top=0;left=0;bottom=0;right=0;align=left;spacingLeft=6;fontStyle=0;overflow=hidden;" parent="esyhRSqTZg4yiv9LOF1y-55" vertex="1">
          <mxGeometry x="30" width="150" height="30" as="geometry">
            <mxRectangle width="150" height="30" as="alternateBounds" />
          </mxGeometry>
        </mxCell>
        <mxCell id="esyhRSqTZg4yiv9LOF1y-58" value="Teacher" style="shape=table;startSize=30;container=1;collapsible=1;childLayout=tableLayout;fixedRows=1;rowLines=0;fontStyle=1;align=center;resizeLast=1;strokeWidth=2;" parent="1" vertex="1">
          <mxGeometry x="380" y="40" width="180" height="180" as="geometry" />
        </mxCell>
        <mxCell id="esyhRSqTZg4yiv9LOF1y-59" value="" style="shape=tableRow;horizontal=0;startSize=0;swimlaneHead=0;swimlaneBody=0;fillColor=none;collapsible=0;dropTarget=0;points=[[0,0.5],[1,0.5]];portConstraint=eastwest;top=0;left=0;right=0;bottom=1;" parent="esyhRSqTZg4yiv9LOF1y-58" vertex="1">
          <mxGeometry y="30" width="180" height="30" as="geometry" />
        </mxCell>
        <mxCell id="esyhRSqTZg4yiv9LOF1y-60" value="PK" style="shape=partialRectangle;connectable=0;fillColor=none;top=0;left=0;bottom=0;right=0;fontStyle=1;overflow=hidden;" parent="esyhRSqTZg4yiv9LOF1y-59" vertex="1">
          <mxGeometry width="30" height="30" as="geometry">
            <mxRectangle width="30" height="30" as="alternateBounds" />
          </mxGeometry>
        </mxCell>
        <mxCell id="esyhRSqTZg4yiv9LOF1y-61" value="id" style="shape=partialRectangle;connectable=0;fillColor=none;top=0;left=0;bottom=0;right=0;align=left;spacingLeft=6;fontStyle=1;overflow=hidden;" parent="esyhRSqTZg4yiv9LOF1y-59" vertex="1">
          <mxGeometry x="30" width="150" height="30" as="geometry">
            <mxRectangle width="150" height="30" as="alternateBounds" />
          </mxGeometry>
        </mxCell>
        <mxCell id="esyhRSqTZg4yiv9LOF1y-62" value="" style="shape=tableRow;horizontal=0;startSize=0;swimlaneHead=0;swimlaneBody=0;fillColor=none;collapsible=0;dropTarget=0;points=[[0,0.5],[1,0.5]];portConstraint=eastwest;top=0;left=0;right=0;bottom=0;" parent="esyhRSqTZg4yiv9LOF1y-58" vertex="1">
          <mxGeometry y="60" width="180" height="30" as="geometry" />
        </mxCell>
        <mxCell id="esyhRSqTZg4yiv9LOF1y-63" value="" style="shape=partialRectangle;connectable=0;fillColor=none;top=0;left=0;bottom=0;right=0;editable=1;overflow=hidden;" parent="esyhRSqTZg4yiv9LOF1y-62" vertex="1">
          <mxGeometry width="30" height="30" as="geometry">
            <mxRectangle width="30" height="30" as="alternateBounds" />
          </mxGeometry>
        </mxCell>
        <mxCell id="esyhRSqTZg4yiv9LOF1y-64" value="fname" style="shape=partialRectangle;connectable=0;fillColor=none;top=0;left=0;bottom=0;right=0;align=left;spacingLeft=6;overflow=hidden;" parent="esyhRSqTZg4yiv9LOF1y-62" vertex="1">
          <mxGeometry x="30" width="150" height="30" as="geometry">
            <mxRectangle width="150" height="30" as="alternateBounds" />
          </mxGeometry>
        </mxCell>
        <mxCell id="esyhRSqTZg4yiv9LOF1y-65" value="" style="shape=tableRow;horizontal=0;startSize=0;swimlaneHead=0;swimlaneBody=0;fillColor=none;collapsible=0;dropTarget=0;points=[[0,0.5],[1,0.5]];portConstraint=eastwest;top=0;left=0;right=0;bottom=0;" parent="esyhRSqTZg4yiv9LOF1y-58" vertex="1">
          <mxGeometry y="90" width="180" height="30" as="geometry" />
        </mxCell>
        <mxCell id="esyhRSqTZg4yiv9LOF1y-66" value="" style="shape=partialRectangle;connectable=0;fillColor=none;top=0;left=0;bottom=0;right=0;editable=1;overflow=hidden;" parent="esyhRSqTZg4yiv9LOF1y-65" vertex="1">
          <mxGeometry width="30" height="30" as="geometry">
            <mxRectangle width="30" height="30" as="alternateBounds" />
          </mxGeometry>
        </mxCell>
        <mxCell id="esyhRSqTZg4yiv9LOF1y-67" value="lname" style="shape=partialRectangle;connectable=0;fillColor=none;top=0;left=0;bottom=0;right=0;align=left;spacingLeft=6;overflow=hidden;" parent="esyhRSqTZg4yiv9LOF1y-65" vertex="1">
          <mxGeometry x="30" width="150" height="30" as="geometry">
            <mxRectangle width="150" height="30" as="alternateBounds" />
          </mxGeometry>
        </mxCell>
        <mxCell id="esyhRSqTZg4yiv9LOF1y-68" value="" style="shape=tableRow;horizontal=0;startSize=0;swimlaneHead=0;swimlaneBody=0;fillColor=none;collapsible=0;dropTarget=0;points=[[0,0.5],[1,0.5]];portConstraint=eastwest;top=0;left=0;right=0;bottom=0;" parent="esyhRSqTZg4yiv9LOF1y-58" vertex="1">
          <mxGeometry y="120" width="180" height="30" as="geometry" />
        </mxCell>
        <mxCell id="esyhRSqTZg4yiv9LOF1y-69" value="" style="shape=partialRectangle;connectable=0;fillColor=none;top=0;left=0;bottom=0;right=0;editable=1;overflow=hidden;" parent="esyhRSqTZg4yiv9LOF1y-68" vertex="1">
          <mxGeometry width="30" height="30" as="geometry">
            <mxRectangle width="30" height="30" as="alternateBounds" />
          </mxGeometry>
        </mxCell>
        <mxCell id="esyhRSqTZg4yiv9LOF1y-70" value="password" style="shape=partialRectangle;connectable=0;fillColor=none;top=0;left=0;bottom=0;right=0;align=left;spacingLeft=6;overflow=hidden;" parent="esyhRSqTZg4yiv9LOF1y-68" vertex="1">
          <mxGeometry x="30" width="150" height="30" as="geometry">
            <mxRectangle width="150" height="30" as="alternateBounds" />
          </mxGeometry>
        </mxCell>
        <mxCell id="esyhRSqTZg4yiv9LOF1y-71" value="" style="shape=tableRow;horizontal=0;startSize=0;swimlaneHead=0;swimlaneBody=0;fillColor=none;collapsible=0;dropTarget=0;points=[[0,0.5],[1,0.5]];portConstraint=eastwest;top=0;left=0;right=0;bottom=1;" parent="esyhRSqTZg4yiv9LOF1y-58" vertex="1">
          <mxGeometry y="150" width="180" height="30" as="geometry" />
        </mxCell>
        <mxCell id="esyhRSqTZg4yiv9LOF1y-72" value="FK" style="shape=partialRectangle;connectable=0;fillColor=none;top=0;left=0;bottom=0;right=0;fontStyle=0;overflow=hidden;" parent="esyhRSqTZg4yiv9LOF1y-71" vertex="1">
          <mxGeometry width="30" height="30" as="geometry">
            <mxRectangle width="30" height="30" as="alternateBounds" />
          </mxGeometry>
        </mxCell>
        <mxCell id="esyhRSqTZg4yiv9LOF1y-73" value="faculty" style="shape=partialRectangle;connectable=0;fillColor=none;top=0;left=0;bottom=0;right=0;align=left;spacingLeft=6;fontStyle=0;overflow=hidden;" parent="esyhRSqTZg4yiv9LOF1y-71" vertex="1">
          <mxGeometry x="30" width="150" height="30" as="geometry">
            <mxRectangle width="150" height="30" as="alternateBounds" />
          </mxGeometry>
        </mxCell>
        <mxCell id="esyhRSqTZg4yiv9LOF1y-74" value="Faculty" style="shape=table;startSize=30;container=1;collapsible=1;childLayout=tableLayout;fixedRows=1;rowLines=0;fontStyle=1;align=center;resizeLast=1;strokeWidth=2;" parent="1" vertex="1">
          <mxGeometry x="120" y="310" width="180" height="90" as="geometry" />
        </mxCell>
        <mxCell id="esyhRSqTZg4yiv9LOF1y-75" value="" style="shape=tableRow;horizontal=0;startSize=0;swimlaneHead=0;swimlaneBody=0;fillColor=none;collapsible=0;dropTarget=0;points=[[0,0.5],[1,0.5]];portConstraint=eastwest;top=0;left=0;right=0;bottom=1;" parent="esyhRSqTZg4yiv9LOF1y-74" vertex="1">
          <mxGeometry y="30" width="180" height="30" as="geometry" />
        </mxCell>
        <mxCell id="esyhRSqTZg4yiv9LOF1y-76" value="PK" style="shape=partialRectangle;connectable=0;fillColor=none;top=0;left=0;bottom=0;right=0;fontStyle=1;overflow=hidden;" parent="esyhRSqTZg4yiv9LOF1y-75" vertex="1">
          <mxGeometry width="30" height="30" as="geometry">
            <mxRectangle width="30" height="30" as="alternateBounds" />
          </mxGeometry>
        </mxCell>
        <mxCell id="esyhRSqTZg4yiv9LOF1y-77" value="id" style="shape=partialRectangle;connectable=0;fillColor=none;top=0;left=0;bottom=0;right=0;align=left;spacingLeft=6;fontStyle=1;overflow=hidden;" parent="esyhRSqTZg4yiv9LOF1y-75" vertex="1">
          <mxGeometry x="30" width="150" height="30" as="geometry">
            <mxRectangle width="150" height="30" as="alternateBounds" />
          </mxGeometry>
        </mxCell>
        <mxCell id="esyhRSqTZg4yiv9LOF1y-78" value="" style="shape=tableRow;horizontal=0;startSize=0;swimlaneHead=0;swimlaneBody=0;fillColor=none;collapsible=0;dropTarget=0;points=[[0,0.5],[1,0.5]];portConstraint=eastwest;top=0;left=0;right=0;bottom=0;" parent="esyhRSqTZg4yiv9LOF1y-74" vertex="1">
          <mxGeometry y="60" width="180" height="30" as="geometry" />
        </mxCell>
        <mxCell id="esyhRSqTZg4yiv9LOF1y-79" value="" style="shape=partialRectangle;connectable=0;fillColor=none;top=0;left=0;bottom=0;right=0;editable=1;overflow=hidden;" parent="esyhRSqTZg4yiv9LOF1y-78" vertex="1">
          <mxGeometry width="30" height="30" as="geometry">
            <mxRectangle width="30" height="30" as="alternateBounds" />
          </mxGeometry>
        </mxCell>
        <mxCell id="esyhRSqTZg4yiv9LOF1y-80" value="name" style="shape=partialRectangle;connectable=0;fillColor=none;top=0;left=0;bottom=0;right=0;align=left;spacingLeft=6;overflow=hidden;" parent="esyhRSqTZg4yiv9LOF1y-78" vertex="1">
          <mxGeometry x="30" width="150" height="30" as="geometry">
            <mxRectangle width="150" height="30" as="alternateBounds" />
          </mxGeometry>
        </mxCell>
        <mxCell id="esyhRSqTZg4yiv9LOF1y-90" value="Activity_Status" style="shape=table;startSize=30;container=1;collapsible=1;childLayout=tableLayout;fixedRows=1;rowLines=0;fontStyle=1;align=center;resizeLast=1;strokeWidth=2;" parent="1" vertex="1">
          <mxGeometry x="140" y="460" width="180" height="180" as="geometry" />
        </mxCell>
        <mxCell id="esyhRSqTZg4yiv9LOF1y-91" value="" style="shape=tableRow;horizontal=0;startSize=0;swimlaneHead=0;swimlaneBody=0;fillColor=none;collapsible=0;dropTarget=0;points=[[0,0.5],[1,0.5]];portConstraint=eastwest;top=0;left=0;right=0;bottom=1;" parent="esyhRSqTZg4yiv9LOF1y-90" vertex="1">
          <mxGeometry y="30" width="180" height="30" as="geometry" />
        </mxCell>
        <mxCell id="esyhRSqTZg4yiv9LOF1y-92" value="PK" style="shape=partialRectangle;connectable=0;fillColor=none;top=0;left=0;bottom=0;right=0;fontStyle=1;overflow=hidden;" parent="esyhRSqTZg4yiv9LOF1y-91" vertex="1">
          <mxGeometry width="30" height="30" as="geometry">
            <mxRectangle width="30" height="30" as="alternateBounds" />
          </mxGeometry>
        </mxCell>
        <mxCell id="esyhRSqTZg4yiv9LOF1y-93" value="activityID" style="shape=partialRectangle;connectable=0;fillColor=none;top=0;left=0;bottom=0;right=0;align=left;spacingLeft=6;fontStyle=1;overflow=hidden;" parent="esyhRSqTZg4yiv9LOF1y-91" vertex="1">
          <mxGeometry x="30" width="150" height="30" as="geometry">
            <mxRectangle width="150" height="30" as="alternateBounds" />
          </mxGeometry>
        </mxCell>
        <mxCell id="esyhRSqTZg4yiv9LOF1y-106" value="" style="shape=tableRow;horizontal=0;startSize=0;swimlaneHead=0;swimlaneBody=0;fillColor=none;collapsible=0;dropTarget=0;points=[[0,0.5],[1,0.5]];portConstraint=eastwest;top=0;left=0;right=0;bottom=1;" parent="esyhRSqTZg4yiv9LOF1y-90" vertex="1">
          <mxGeometry y="60" width="180" height="30" as="geometry" />
        </mxCell>
        <mxCell id="esyhRSqTZg4yiv9LOF1y-107" value="PK" style="shape=partialRectangle;connectable=0;fillColor=none;top=0;left=0;bottom=0;right=0;fontStyle=1;overflow=hidden;" parent="esyhRSqTZg4yiv9LOF1y-106" vertex="1">
          <mxGeometry width="30" height="30" as="geometry">
            <mxRectangle width="30" height="30" as="alternateBounds" />
          </mxGeometry>
        </mxCell>
        <mxCell id="esyhRSqTZg4yiv9LOF1y-108" value="studentID" style="shape=partialRectangle;connectable=0;fillColor=none;top=0;left=0;bottom=0;right=0;align=left;spacingLeft=6;fontStyle=1;overflow=hidden;" parent="esyhRSqTZg4yiv9LOF1y-106" vertex="1">
          <mxGeometry x="30" width="150" height="30" as="geometry">
            <mxRectangle width="150" height="30" as="alternateBounds" />
          </mxGeometry>
        </mxCell>
        <mxCell id="esyhRSqTZg4yiv9LOF1y-94" value="" style="shape=tableRow;horizontal=0;startSize=0;swimlaneHead=0;swimlaneBody=0;fillColor=none;collapsible=0;dropTarget=0;points=[[0,0.5],[1,0.5]];portConstraint=eastwest;top=0;left=0;right=0;bottom=0;" parent="esyhRSqTZg4yiv9LOF1y-90" vertex="1">
          <mxGeometry y="90" width="180" height="30" as="geometry" />
        </mxCell>
        <mxCell id="esyhRSqTZg4yiv9LOF1y-95" value="" style="shape=partialRectangle;connectable=0;fillColor=none;top=0;left=0;bottom=0;right=0;editable=1;overflow=hidden;" parent="esyhRSqTZg4yiv9LOF1y-94" vertex="1">
          <mxGeometry width="30" height="30" as="geometry">
            <mxRectangle width="30" height="30" as="alternateBounds" />
          </mxGeometry>
        </mxCell>
        <mxCell id="esyhRSqTZg4yiv9LOF1y-96" value="status" style="shape=partialRectangle;connectable=0;fillColor=none;top=0;left=0;bottom=0;right=0;align=left;spacingLeft=6;overflow=hidden;" parent="esyhRSqTZg4yiv9LOF1y-94" vertex="1">
          <mxGeometry x="30" width="150" height="30" as="geometry">
            <mxRectangle width="150" height="30" as="alternateBounds" />
          </mxGeometry>
        </mxCell>
        <mxCell id="esyhRSqTZg4yiv9LOF1y-97" value="" style="shape=tableRow;horizontal=0;startSize=0;swimlaneHead=0;swimlaneBody=0;fillColor=none;collapsible=0;dropTarget=0;points=[[0,0.5],[1,0.5]];portConstraint=eastwest;top=0;left=0;right=0;bottom=0;" parent="esyhRSqTZg4yiv9LOF1y-90" vertex="1">
          <mxGeometry y="120" width="180" height="30" as="geometry" />
        </mxCell>
        <mxCell id="esyhRSqTZg4yiv9LOF1y-98" value="" style="shape=partialRectangle;connectable=0;fillColor=none;top=0;left=0;bottom=0;right=0;editable=1;overflow=hidden;" parent="esyhRSqTZg4yiv9LOF1y-97" vertex="1">
          <mxGeometry width="30" height="30" as="geometry">
            <mxRectangle width="30" height="30" as="alternateBounds" />
          </mxGeometry>
        </mxCell>
        <mxCell id="esyhRSqTZg4yiv9LOF1y-99" value="timeEnroll" style="shape=partialRectangle;connectable=0;fillColor=none;top=0;left=0;bottom=0;right=0;align=left;spacingLeft=6;overflow=hidden;" parent="esyhRSqTZg4yiv9LOF1y-97" vertex="1">
          <mxGeometry x="30" width="150" height="30" as="geometry">
            <mxRectangle width="150" height="30" as="alternateBounds" />
          </mxGeometry>
        </mxCell>
        <mxCell id="esyhRSqTZg4yiv9LOF1y-100" value="" style="shape=tableRow;horizontal=0;startSize=0;swimlaneHead=0;swimlaneBody=0;fillColor=none;collapsible=0;dropTarget=0;points=[[0,0.5],[1,0.5]];portConstraint=eastwest;top=0;left=0;right=0;bottom=0;" parent="esyhRSqTZg4yiv9LOF1y-90" vertex="1">
          <mxGeometry y="150" width="180" height="30" as="geometry" />
        </mxCell>
        <mxCell id="esyhRSqTZg4yiv9LOF1y-101" value="" style="shape=partialRectangle;connectable=0;fillColor=none;top=0;left=0;bottom=0;right=0;editable=1;overflow=hidden;" parent="esyhRSqTZg4yiv9LOF1y-100" vertex="1">
          <mxGeometry width="30" height="30" as="geometry">
            <mxRectangle width="30" height="30" as="alternateBounds" />
          </mxGeometry>
        </mxCell>
        <mxCell id="esyhRSqTZg4yiv9LOF1y-102" value="timeJoin" style="shape=partialRectangle;connectable=0;fillColor=none;top=0;left=0;bottom=0;right=0;align=left;spacingLeft=6;overflow=hidden;" parent="esyhRSqTZg4yiv9LOF1y-100" vertex="1">
          <mxGeometry x="30" width="150" height="30" as="geometry">
            <mxRectangle width="150" height="30" as="alternateBounds" />
          </mxGeometry>
        </mxCell>
        <mxCell id="esyhRSqTZg4yiv9LOF1y-109" value="Activity" style="shape=table;startSize=30;container=1;collapsible=1;childLayout=tableLayout;fixedRows=1;rowLines=0;fontStyle=1;align=center;resizeLast=1;strokeWidth=2;" parent="1" vertex="1">
          <mxGeometry x="440" y="290" width="180" height="390" as="geometry" />
        </mxCell>
        <mxCell id="esyhRSqTZg4yiv9LOF1y-110" value="" style="shape=tableRow;horizontal=0;startSize=0;swimlaneHead=0;swimlaneBody=0;fillColor=none;collapsible=0;dropTarget=0;points=[[0,0.5],[1,0.5]];portConstraint=eastwest;top=0;left=0;right=0;bottom=1;" parent="esyhRSqTZg4yiv9LOF1y-109" vertex="1">
          <mxGeometry y="30" width="180" height="30" as="geometry" />
        </mxCell>
        <mxCell id="esyhRSqTZg4yiv9LOF1y-111" value="PK" style="shape=partialRectangle;connectable=0;fillColor=none;top=0;left=0;bottom=0;right=0;fontStyle=1;overflow=hidden;" parent="esyhRSqTZg4yiv9LOF1y-110" vertex="1">
          <mxGeometry width="30" height="30" as="geometry">
            <mxRectangle width="30" height="30" as="alternateBounds" />
          </mxGeometry>
        </mxCell>
        <mxCell id="esyhRSqTZg4yiv9LOF1y-112" value="id" style="shape=partialRectangle;connectable=0;fillColor=none;top=0;left=0;bottom=0;right=0;align=left;spacingLeft=6;fontStyle=1;overflow=hidden;" parent="esyhRSqTZg4yiv9LOF1y-110" vertex="1">
          <mxGeometry x="30" width="150" height="30" as="geometry">
            <mxRectangle width="150" height="30" as="alternateBounds" />
          </mxGeometry>
        </mxCell>
        <mxCell id="esyhRSqTZg4yiv9LOF1y-116" value="" style="shape=tableRow;horizontal=0;startSize=0;swimlaneHead=0;swimlaneBody=0;fillColor=none;collapsible=0;dropTarget=0;points=[[0,0.5],[1,0.5]];portConstraint=eastwest;top=0;left=0;right=0;bottom=0;" parent="esyhRSqTZg4yiv9LOF1y-109" vertex="1">
          <mxGeometry y="60" width="180" height="30" as="geometry" />
        </mxCell>
        <mxCell id="esyhRSqTZg4yiv9LOF1y-117" value="FK" style="shape=partialRectangle;connectable=0;fillColor=none;top=0;left=0;bottom=0;right=0;editable=1;overflow=hidden;" parent="esyhRSqTZg4yiv9LOF1y-116" vertex="1">
          <mxGeometry width="30" height="30" as="geometry">
            <mxRectangle width="30" height="30" as="alternateBounds" />
          </mxGeometry>
        </mxCell>
        <mxCell id="esyhRSqTZg4yiv9LOF1y-118" value="creator" style="shape=partialRectangle;connectable=0;fillColor=none;top=0;left=0;bottom=0;right=0;align=left;spacingLeft=6;overflow=hidden;" parent="esyhRSqTZg4yiv9LOF1y-116" vertex="1">
          <mxGeometry x="30" width="150" height="30" as="geometry">
            <mxRectangle width="150" height="30" as="alternateBounds" />
          </mxGeometry>
        </mxCell>
        <mxCell id="esyhRSqTZg4yiv9LOF1y-153" value="" style="shape=tableRow;horizontal=0;startSize=0;swimlaneHead=0;swimlaneBody=0;fillColor=none;collapsible=0;dropTarget=0;points=[[0,0.5],[1,0.5]];portConstraint=eastwest;top=0;left=0;right=0;bottom=0;" parent="esyhRSqTZg4yiv9LOF1y-109" vertex="1">
          <mxGeometry y="90" width="180" height="30" as="geometry" />
        </mxCell>
        <mxCell id="esyhRSqTZg4yiv9LOF1y-154" value="" style="shape=partialRectangle;connectable=0;fillColor=none;top=0;left=0;bottom=0;right=0;editable=1;overflow=hidden;" parent="esyhRSqTZg4yiv9LOF1y-153" vertex="1">
          <mxGeometry width="30" height="30" as="geometry">
            <mxRectangle width="30" height="30" as="alternateBounds" />
          </mxGeometry>
        </mxCell>
        <mxCell id="esyhRSqTZg4yiv9LOF1y-155" value="name" style="shape=partialRectangle;connectable=0;fillColor=none;top=0;left=0;bottom=0;right=0;align=left;spacingLeft=6;overflow=hidden;" parent="esyhRSqTZg4yiv9LOF1y-153" vertex="1">
          <mxGeometry x="30" width="150" height="30" as="geometry">
            <mxRectangle width="150" height="30" as="alternateBounds" />
          </mxGeometry>
        </mxCell>
        <mxCell id="esyhRSqTZg4yiv9LOF1y-119" value="" style="shape=tableRow;horizontal=0;startSize=0;swimlaneHead=0;swimlaneBody=0;fillColor=none;collapsible=0;dropTarget=0;points=[[0,0.5],[1,0.5]];portConstraint=eastwest;top=0;left=0;right=0;bottom=0;" parent="esyhRSqTZg4yiv9LOF1y-109" vertex="1">
          <mxGeometry y="120" width="180" height="30" as="geometry" />
        </mxCell>
        <mxCell id="esyhRSqTZg4yiv9LOF1y-120" value="" style="shape=partialRectangle;connectable=0;fillColor=none;top=0;left=0;bottom=0;right=0;editable=1;overflow=hidden;" parent="esyhRSqTZg4yiv9LOF1y-119" vertex="1">
          <mxGeometry width="30" height="30" as="geometry">
            <mxRectangle width="30" height="30" as="alternateBounds" />
          </mxGeometry>
        </mxCell>
        <mxCell id="esyhRSqTZg4yiv9LOF1y-121" value="detail" style="shape=partialRectangle;connectable=0;fillColor=none;top=0;left=0;bottom=0;right=0;align=left;spacingLeft=6;overflow=hidden;" parent="esyhRSqTZg4yiv9LOF1y-119" vertex="1">
          <mxGeometry x="30" width="150" height="30" as="geometry">
            <mxRectangle width="150" height="30" as="alternateBounds" />
          </mxGeometry>
        </mxCell>
        <mxCell id="yqC0yZ-GoLXx3mvcpFuO-97" value="" style="shape=tableRow;horizontal=0;startSize=0;swimlaneHead=0;swimlaneBody=0;fillColor=none;collapsible=0;dropTarget=0;points=[[0,0.5],[1,0.5]];portConstraint=eastwest;top=0;left=0;right=0;bottom=0;" parent="esyhRSqTZg4yiv9LOF1y-109" vertex="1">
          <mxGeometry y="150" width="180" height="30" as="geometry" />
        </mxCell>
        <mxCell id="yqC0yZ-GoLXx3mvcpFuO-98" value="" style="shape=partialRectangle;connectable=0;fillColor=none;top=0;left=0;bottom=0;right=0;editable=1;overflow=hidden;" parent="yqC0yZ-GoLXx3mvcpFuO-97" vertex="1">
          <mxGeometry width="30" height="30" as="geometry">
            <mxRectangle width="30" height="30" as="alternateBounds" />
          </mxGeometry>
        </mxCell>
        <mxCell id="yqC0yZ-GoLXx3mvcpFuO-99" value="createAt" style="shape=partialRectangle;connectable=0;fillColor=none;top=0;left=0;bottom=0;right=0;align=left;spacingLeft=6;overflow=hidden;" parent="yqC0yZ-GoLXx3mvcpFuO-97" vertex="1">
          <mxGeometry x="30" width="150" height="30" as="geometry">
            <mxRectangle width="150" height="30" as="alternateBounds" />
          </mxGeometry>
        </mxCell>
        <mxCell id="esyhRSqTZg4yiv9LOF1y-113" value="" style="shape=tableRow;horizontal=0;startSize=0;swimlaneHead=0;swimlaneBody=0;fillColor=none;collapsible=0;dropTarget=0;points=[[0,0.5],[1,0.5]];portConstraint=eastwest;top=0;left=0;right=0;bottom=0;" parent="esyhRSqTZg4yiv9LOF1y-109" vertex="1">
          <mxGeometry y="180" width="180" height="30" as="geometry" />
        </mxCell>
        <mxCell id="esyhRSqTZg4yiv9LOF1y-114" value="" style="shape=partialRectangle;connectable=0;fillColor=none;top=0;left=0;bottom=0;right=0;editable=1;overflow=hidden;" parent="esyhRSqTZg4yiv9LOF1y-113" vertex="1">
          <mxGeometry width="30" height="30" as="geometry">
            <mxRectangle width="30" height="30" as="alternateBounds" />
          </mxGeometry>
        </mxCell>
        <mxCell id="esyhRSqTZg4yiv9LOF1y-115" value="location" style="shape=partialRectangle;connectable=0;fillColor=none;top=0;left=0;bottom=0;right=0;align=left;spacingLeft=6;overflow=hidden;" parent="esyhRSqTZg4yiv9LOF1y-113" vertex="1">
          <mxGeometry x="30" width="150" height="30" as="geometry">
            <mxRectangle width="150" height="30" as="alternateBounds" />
          </mxGeometry>
        </mxCell>
        <mxCell id="esyhRSqTZg4yiv9LOF1y-141" value="" style="shape=tableRow;horizontal=0;startSize=0;swimlaneHead=0;swimlaneBody=0;fillColor=none;collapsible=0;dropTarget=0;points=[[0,0.5],[1,0.5]];portConstraint=eastwest;top=0;left=0;right=0;bottom=0;" parent="esyhRSqTZg4yiv9LOF1y-109" vertex="1">
          <mxGeometry y="210" width="180" height="30" as="geometry" />
        </mxCell>
        <mxCell id="esyhRSqTZg4yiv9LOF1y-142" value="" style="shape=partialRectangle;connectable=0;fillColor=none;top=0;left=0;bottom=0;right=0;editable=1;overflow=hidden;" parent="esyhRSqTZg4yiv9LOF1y-141" vertex="1">
          <mxGeometry width="30" height="30" as="geometry">
            <mxRectangle width="30" height="30" as="alternateBounds" />
          </mxGeometry>
        </mxCell>
        <mxCell id="esyhRSqTZg4yiv9LOF1y-143" value="eventDate" style="shape=partialRectangle;connectable=0;fillColor=none;top=0;left=0;bottom=0;right=0;align=left;spacingLeft=6;overflow=hidden;" parent="esyhRSqTZg4yiv9LOF1y-141" vertex="1">
          <mxGeometry x="30" width="150" height="30" as="geometry">
            <mxRectangle width="150" height="30" as="alternateBounds" />
          </mxGeometry>
        </mxCell>
        <mxCell id="esyhRSqTZg4yiv9LOF1y-144" value="" style="shape=tableRow;horizontal=0;startSize=0;swimlaneHead=0;swimlaneBody=0;fillColor=none;collapsible=0;dropTarget=0;points=[[0,0.5],[1,0.5]];portConstraint=eastwest;top=0;left=0;right=0;bottom=0;" parent="esyhRSqTZg4yiv9LOF1y-109" vertex="1">
          <mxGeometry y="240" width="180" height="30" as="geometry" />
        </mxCell>
        <mxCell id="esyhRSqTZg4yiv9LOF1y-145" value="" style="shape=partialRectangle;connectable=0;fillColor=none;top=0;left=0;bottom=0;right=0;editable=1;overflow=hidden;" parent="esyhRSqTZg4yiv9LOF1y-144" vertex="1">
          <mxGeometry width="30" height="30" as="geometry">
            <mxRectangle width="30" height="30" as="alternateBounds" />
          </mxGeometry>
        </mxCell>
        <mxCell id="esyhRSqTZg4yiv9LOF1y-146" value="timeStart" style="shape=partialRectangle;connectable=0;fillColor=none;top=0;left=0;bottom=0;right=0;align=left;spacingLeft=6;overflow=hidden;" parent="esyhRSqTZg4yiv9LOF1y-144" vertex="1">
          <mxGeometry x="30" width="150" height="30" as="geometry">
            <mxRectangle width="150" height="30" as="alternateBounds" />
          </mxGeometry>
        </mxCell>
        <mxCell id="yqC0yZ-GoLXx3mvcpFuO-60" value="" style="shape=tableRow;horizontal=0;startSize=0;swimlaneHead=0;swimlaneBody=0;fillColor=none;collapsible=0;dropTarget=0;points=[[0,0.5],[1,0.5]];portConstraint=eastwest;top=0;left=0;right=0;bottom=0;" parent="esyhRSqTZg4yiv9LOF1y-109" vertex="1">
          <mxGeometry y="270" width="180" height="30" as="geometry" />
        </mxCell>
        <mxCell id="yqC0yZ-GoLXx3mvcpFuO-61" value="" style="shape=partialRectangle;connectable=0;fillColor=none;top=0;left=0;bottom=0;right=0;editable=1;overflow=hidden;" parent="yqC0yZ-GoLXx3mvcpFuO-60" vertex="1">
          <mxGeometry width="30" height="30" as="geometry">
            <mxRectangle width="30" height="30" as="alternateBounds" />
          </mxGeometry>
        </mxCell>
        <mxCell id="yqC0yZ-GoLXx3mvcpFuO-62" value="timeEnd" style="shape=partialRectangle;connectable=0;fillColor=none;top=0;left=0;bottom=0;right=0;align=left;spacingLeft=6;overflow=hidden;" parent="yqC0yZ-GoLXx3mvcpFuO-60" vertex="1">
          <mxGeometry x="30" width="150" height="30" as="geometry">
            <mxRectangle width="150" height="30" as="alternateBounds" />
          </mxGeometry>
        </mxCell>
        <mxCell id="esyhRSqTZg4yiv9LOF1y-147" value="" style="shape=tableRow;horizontal=0;startSize=0;swimlaneHead=0;swimlaneBody=0;fillColor=none;collapsible=0;dropTarget=0;points=[[0,0.5],[1,0.5]];portConstraint=eastwest;top=0;left=0;right=0;bottom=0;" parent="esyhRSqTZg4yiv9LOF1y-109" vertex="1">
          <mxGeometry y="300" width="180" height="30" as="geometry" />
        </mxCell>
        <mxCell id="esyhRSqTZg4yiv9LOF1y-148" value="" style="shape=partialRectangle;connectable=0;fillColor=none;top=0;left=0;bottom=0;right=0;editable=1;overflow=hidden;" parent="esyhRSqTZg4yiv9LOF1y-147" vertex="1">
          <mxGeometry width="30" height="30" as="geometry">
            <mxRectangle width="30" height="30" as="alternateBounds" />
          </mxGeometry>
        </mxCell>
        <mxCell id="esyhRSqTZg4yiv9LOF1y-149" value="hoursToReceive" style="shape=partialRectangle;connectable=0;fillColor=none;top=0;left=0;bottom=0;right=0;align=left;spacingLeft=6;overflow=hidden;" parent="esyhRSqTZg4yiv9LOF1y-147" vertex="1">
          <mxGeometry x="30" width="150" height="30" as="geometry">
            <mxRectangle width="150" height="30" as="alternateBounds" />
          </mxGeometry>
        </mxCell>
        <mxCell id="esyhRSqTZg4yiv9LOF1y-150" value="" style="shape=tableRow;horizontal=0;startSize=0;swimlaneHead=0;swimlaneBody=0;fillColor=none;collapsible=0;dropTarget=0;points=[[0,0.5],[1,0.5]];portConstraint=eastwest;top=0;left=0;right=0;bottom=0;" parent="esyhRSqTZg4yiv9LOF1y-109" vertex="1">
          <mxGeometry y="330" width="180" height="30" as="geometry" />
        </mxCell>
        <mxCell id="esyhRSqTZg4yiv9LOF1y-151" value="" style="shape=partialRectangle;connectable=0;fillColor=none;top=0;left=0;bottom=0;right=0;editable=1;overflow=hidden;" parent="esyhRSqTZg4yiv9LOF1y-150" vertex="1">
          <mxGeometry width="30" height="30" as="geometry">
            <mxRectangle width="30" height="30" as="alternateBounds" />
          </mxGeometry>
        </mxCell>
        <mxCell id="esyhRSqTZg4yiv9LOF1y-152" value="image" style="shape=partialRectangle;connectable=0;fillColor=none;top=0;left=0;bottom=0;right=0;align=left;spacingLeft=6;overflow=hidden;" parent="esyhRSqTZg4yiv9LOF1y-150" vertex="1">
          <mxGeometry x="30" width="150" height="30" as="geometry">
            <mxRectangle width="150" height="30" as="alternateBounds" />
          </mxGeometry>
        </mxCell>
        <mxCell id="yqC0yZ-GoLXx3mvcpFuO-57" value="" style="shape=tableRow;horizontal=0;startSize=0;swimlaneHead=0;swimlaneBody=0;fillColor=none;collapsible=0;dropTarget=0;points=[[0,0.5],[1,0.5]];portConstraint=eastwest;top=0;left=0;right=0;bottom=0;" parent="esyhRSqTZg4yiv9LOF1y-109" vertex="1">
          <mxGeometry y="360" width="180" height="30" as="geometry" />
        </mxCell>
        <mxCell id="yqC0yZ-GoLXx3mvcpFuO-58" value="" style="shape=partialRectangle;connectable=0;fillColor=none;top=0;left=0;bottom=0;right=0;editable=1;overflow=hidden;" parent="yqC0yZ-GoLXx3mvcpFuO-57" vertex="1">
          <mxGeometry width="30" height="30" as="geometry">
            <mxRectangle width="30" height="30" as="alternateBounds" />
          </mxGeometry>
        </mxCell>
        <mxCell id="yqC0yZ-GoLXx3mvcpFuO-59" value="year" style="shape=partialRectangle;connectable=0;fillColor=none;top=0;left=0;bottom=0;right=0;align=left;spacingLeft=6;overflow=hidden;" parent="yqC0yZ-GoLXx3mvcpFuO-57" vertex="1">
          <mxGeometry x="30" width="150" height="30" as="geometry">
            <mxRectangle width="150" height="30" as="alternateBounds" />
          </mxGeometry>
        </mxCell>
        <mxCell id="esyhRSqTZg4yiv9LOF1y-156" value="" style="edgeStyle=orthogonalEdgeStyle;fontSize=12;html=1;endArrow=ERoneToMany;rounded=0;exitX=1;exitY=0.5;exitDx=0;exitDy=0;entryX=0;entryY=0.5;entryDx=0;entryDy=0;strokeWidth=2;" parent="1" source="esyhRSqTZg4yiv9LOF1y-75" target="esyhRSqTZg4yiv9LOF1y-71" edge="1">
          <mxGeometry width="100" height="100" relative="1" as="geometry">
            <mxPoint x="350" y="390" as="sourcePoint" />
            <mxPoint x="520" y="260" as="targetPoint" />
          </mxGeometry>
        </mxCell>
        <mxCell id="esyhRSqTZg4yiv9LOF1y-158" value="" style="fontSize=12;html=1;endArrow=ERoneToMany;rounded=0;entryX=0;entryY=0.5;entryDx=0;entryDy=0;edgeStyle=orthogonalEdgeStyle;exitX=0;exitY=0.667;exitDx=0;exitDy=0;exitPerimeter=0;strokeWidth=2;" parent="1" source="esyhRSqTZg4yiv9LOF1y-75" target="esyhRSqTZg4yiv9LOF1y-55" edge="1">
          <mxGeometry width="100" height="100" relative="1" as="geometry">
            <mxPoint x="50" y="360" as="sourcePoint" />
            <mxPoint x="150" y="270" as="targetPoint" />
            <Array as="points">
              <mxPoint x="80" y="360" />
              <mxPoint x="80" y="205" />
            </Array>
          </mxGeometry>
        </mxCell>
        <mxCell id="esyhRSqTZg4yiv9LOF1y-159" value="" style="edgeStyle=orthogonalEdgeStyle;fontSize=12;html=1;endArrow=ERoneToMany;rounded=0;entryX=0;entryY=0.5;entryDx=0;entryDy=0;exitX=0;exitY=0.5;exitDx=0;exitDy=0;strokeWidth=2;" parent="1" source="esyhRSqTZg4yiv9LOF1y-27" target="esyhRSqTZg4yiv9LOF1y-106" edge="1">
          <mxGeometry width="100" height="100" relative="1" as="geometry">
            <mxPoint x="20" y="440" as="sourcePoint" />
            <mxPoint x="140" y="530" as="targetPoint" />
            <Array as="points">
              <mxPoint x="40" y="85" />
              <mxPoint x="40" y="535" />
            </Array>
          </mxGeometry>
        </mxCell>
        <mxCell id="esyhRSqTZg4yiv9LOF1y-161" value="" style="edgeStyle=orthogonalEdgeStyle;fontSize=12;html=1;endArrow=ERoneToMany;rounded=0;entryX=1;entryY=0.5;entryDx=0;entryDy=0;exitX=1;exitY=0.5;exitDx=0;exitDy=0;strokeWidth=2;" parent="1" source="esyhRSqTZg4yiv9LOF1y-59" target="esyhRSqTZg4yiv9LOF1y-116" edge="1">
          <mxGeometry width="100" height="100" relative="1" as="geometry">
            <mxPoint x="460" y="390" as="sourcePoint" />
            <mxPoint x="560" y="290" as="targetPoint" />
            <Array as="points">
              <mxPoint x="680" y="85" />
              <mxPoint x="680" y="365" />
            </Array>
          </mxGeometry>
        </mxCell>
        <mxCell id="esyhRSqTZg4yiv9LOF1y-162" value="" style="edgeStyle=orthogonalEdgeStyle;fontSize=12;html=1;endArrow=ERoneToMany;rounded=0;entryX=1;entryY=0.5;entryDx=0;entryDy=0;exitX=0;exitY=0.5;exitDx=0;exitDy=0;strokeWidth=2;" parent="1" source="esyhRSqTZg4yiv9LOF1y-110" target="esyhRSqTZg4yiv9LOF1y-91" edge="1">
          <mxGeometry width="100" height="100" relative="1" as="geometry">
            <mxPoint x="460" y="390" as="sourcePoint" />
            <mxPoint x="560" y="290" as="targetPoint" />
          </mxGeometry>
        </mxCell>
      </root>
    </mxGraphModel>
  </diagram>
  <diagram name="Copy of Entity Relationship Diagram" id="NNVpuMmgz6w5KLhKlv4s">
    <mxGraphModel dx="827" dy="1086" grid="1" gridSize="10" guides="1" tooltips="1" connect="1" arrows="1" fold="1" page="1" pageScale="1" pageWidth="719" pageHeight="719" math="0" shadow="0" extFonts="Permanent Marker^https://fonts.googleapis.com/css?family=Permanent+Marker">
      <root>
        <mxCell id="TmXR3nSOroDPRzoBr4Ug-0" />
        <mxCell id="TmXR3nSOroDPRzoBr4Ug-1" parent="TmXR3nSOroDPRzoBr4Ug-0" />
        <mxCell id="TmXR3nSOroDPRzoBr4Ug-2" value="Student" style="shape=table;startSize=30;container=1;collapsible=1;childLayout=tableLayout;fixedRows=1;rowLines=0;fontStyle=1;align=center;resizeLast=1;strokeWidth=2;" vertex="1" parent="TmXR3nSOroDPRzoBr4Ug-1">
          <mxGeometry x="120" y="40" width="180" height="180" as="geometry" />
        </mxCell>
        <mxCell id="TmXR3nSOroDPRzoBr4Ug-3" value="" style="shape=tableRow;horizontal=0;startSize=0;swimlaneHead=0;swimlaneBody=0;fillColor=none;collapsible=0;dropTarget=0;points=[[0,0.5],[1,0.5]];portConstraint=eastwest;top=0;left=0;right=0;bottom=1;" vertex="1" parent="TmXR3nSOroDPRzoBr4Ug-2">
          <mxGeometry y="30" width="180" height="30" as="geometry" />
        </mxCell>
        <mxCell id="TmXR3nSOroDPRzoBr4Ug-4" value="PK" style="shape=partialRectangle;connectable=0;fillColor=none;top=0;left=0;bottom=0;right=0;fontStyle=1;overflow=hidden;" vertex="1" parent="TmXR3nSOroDPRzoBr4Ug-3">
          <mxGeometry width="30" height="30" as="geometry">
            <mxRectangle width="30" height="30" as="alternateBounds" />
          </mxGeometry>
        </mxCell>
        <mxCell id="TmXR3nSOroDPRzoBr4Ug-5" value="id" style="shape=partialRectangle;connectable=0;fillColor=none;top=0;left=0;bottom=0;right=0;align=left;spacingLeft=6;fontStyle=1;overflow=hidden;" vertex="1" parent="TmXR3nSOroDPRzoBr4Ug-3">
          <mxGeometry x="30" width="150" height="30" as="geometry">
            <mxRectangle width="150" height="30" as="alternateBounds" />
          </mxGeometry>
        </mxCell>
        <mxCell id="TmXR3nSOroDPRzoBr4Ug-6" value="" style="shape=tableRow;horizontal=0;startSize=0;swimlaneHead=0;swimlaneBody=0;fillColor=none;collapsible=0;dropTarget=0;points=[[0,0.5],[1,0.5]];portConstraint=eastwest;top=0;left=0;right=0;bottom=0;" vertex="1" parent="TmXR3nSOroDPRzoBr4Ug-2">
          <mxGeometry y="60" width="180" height="30" as="geometry" />
        </mxCell>
        <mxCell id="TmXR3nSOroDPRzoBr4Ug-7" value="" style="shape=partialRectangle;connectable=0;fillColor=none;top=0;left=0;bottom=0;right=0;editable=1;overflow=hidden;" vertex="1" parent="TmXR3nSOroDPRzoBr4Ug-6">
          <mxGeometry width="30" height="30" as="geometry">
            <mxRectangle width="30" height="30" as="alternateBounds" />
          </mxGeometry>
        </mxCell>
        <mxCell id="TmXR3nSOroDPRzoBr4Ug-8" value="fname" style="shape=partialRectangle;connectable=0;fillColor=none;top=0;left=0;bottom=0;right=0;align=left;spacingLeft=6;overflow=hidden;" vertex="1" parent="TmXR3nSOroDPRzoBr4Ug-6">
          <mxGeometry x="30" width="150" height="30" as="geometry">
            <mxRectangle width="150" height="30" as="alternateBounds" />
          </mxGeometry>
        </mxCell>
        <mxCell id="TmXR3nSOroDPRzoBr4Ug-9" value="" style="shape=tableRow;horizontal=0;startSize=0;swimlaneHead=0;swimlaneBody=0;fillColor=none;collapsible=0;dropTarget=0;points=[[0,0.5],[1,0.5]];portConstraint=eastwest;top=0;left=0;right=0;bottom=0;" vertex="1" parent="TmXR3nSOroDPRzoBr4Ug-2">
          <mxGeometry y="90" width="180" height="30" as="geometry" />
        </mxCell>
        <mxCell id="TmXR3nSOroDPRzoBr4Ug-10" value="" style="shape=partialRectangle;connectable=0;fillColor=none;top=0;left=0;bottom=0;right=0;editable=1;overflow=hidden;" vertex="1" parent="TmXR3nSOroDPRzoBr4Ug-9">
          <mxGeometry width="30" height="30" as="geometry">
            <mxRectangle width="30" height="30" as="alternateBounds" />
          </mxGeometry>
        </mxCell>
        <mxCell id="TmXR3nSOroDPRzoBr4Ug-11" value="lname" style="shape=partialRectangle;connectable=0;fillColor=none;top=0;left=0;bottom=0;right=0;align=left;spacingLeft=6;overflow=hidden;" vertex="1" parent="TmXR3nSOroDPRzoBr4Ug-9">
          <mxGeometry x="30" width="150" height="30" as="geometry">
            <mxRectangle width="150" height="30" as="alternateBounds" />
          </mxGeometry>
        </mxCell>
        <mxCell id="TmXR3nSOroDPRzoBr4Ug-12" value="" style="shape=tableRow;horizontal=0;startSize=0;swimlaneHead=0;swimlaneBody=0;fillColor=none;collapsible=0;dropTarget=0;points=[[0,0.5],[1,0.5]];portConstraint=eastwest;top=0;left=0;right=0;bottom=0;" vertex="1" parent="TmXR3nSOroDPRzoBr4Ug-2">
          <mxGeometry y="120" width="180" height="30" as="geometry" />
        </mxCell>
        <mxCell id="TmXR3nSOroDPRzoBr4Ug-13" value="" style="shape=partialRectangle;connectable=0;fillColor=none;top=0;left=0;bottom=0;right=0;editable=1;overflow=hidden;" vertex="1" parent="TmXR3nSOroDPRzoBr4Ug-12">
          <mxGeometry width="30" height="30" as="geometry">
            <mxRectangle width="30" height="30" as="alternateBounds" />
          </mxGeometry>
        </mxCell>
        <mxCell id="TmXR3nSOroDPRzoBr4Ug-14" value="password" style="shape=partialRectangle;connectable=0;fillColor=none;top=0;left=0;bottom=0;right=0;align=left;spacingLeft=6;overflow=hidden;" vertex="1" parent="TmXR3nSOroDPRzoBr4Ug-12">
          <mxGeometry x="30" width="150" height="30" as="geometry">
            <mxRectangle width="150" height="30" as="alternateBounds" />
          </mxGeometry>
        </mxCell>
        <mxCell id="TmXR3nSOroDPRzoBr4Ug-15" value="" style="shape=tableRow;horizontal=0;startSize=0;swimlaneHead=0;swimlaneBody=0;fillColor=none;collapsible=0;dropTarget=0;points=[[0,0.5],[1,0.5]];portConstraint=eastwest;top=0;left=0;right=0;bottom=1;" vertex="1" parent="TmXR3nSOroDPRzoBr4Ug-2">
          <mxGeometry y="150" width="180" height="30" as="geometry" />
        </mxCell>
        <mxCell id="TmXR3nSOroDPRzoBr4Ug-16" value="FK" style="shape=partialRectangle;connectable=0;fillColor=none;top=0;left=0;bottom=0;right=0;fontStyle=0;overflow=hidden;" vertex="1" parent="TmXR3nSOroDPRzoBr4Ug-15">
          <mxGeometry width="30" height="30" as="geometry">
            <mxRectangle width="30" height="30" as="alternateBounds" />
          </mxGeometry>
        </mxCell>
        <mxCell id="TmXR3nSOroDPRzoBr4Ug-17" value="faculty" style="shape=partialRectangle;connectable=0;fillColor=none;top=0;left=0;bottom=0;right=0;align=left;spacingLeft=6;fontStyle=0;overflow=hidden;" vertex="1" parent="TmXR3nSOroDPRzoBr4Ug-15">
          <mxGeometry x="30" width="150" height="30" as="geometry">
            <mxRectangle width="150" height="30" as="alternateBounds" />
          </mxGeometry>
        </mxCell>
        <mxCell id="TmXR3nSOroDPRzoBr4Ug-18" value="Teacher" style="shape=table;startSize=30;container=1;collapsible=1;childLayout=tableLayout;fixedRows=1;rowLines=0;fontStyle=1;align=center;resizeLast=1;strokeWidth=2;" vertex="1" parent="TmXR3nSOroDPRzoBr4Ug-1">
          <mxGeometry x="380" y="40" width="180" height="180" as="geometry" />
        </mxCell>
        <mxCell id="TmXR3nSOroDPRzoBr4Ug-19" value="" style="shape=tableRow;horizontal=0;startSize=0;swimlaneHead=0;swimlaneBody=0;fillColor=none;collapsible=0;dropTarget=0;points=[[0,0.5],[1,0.5]];portConstraint=eastwest;top=0;left=0;right=0;bottom=1;" vertex="1" parent="TmXR3nSOroDPRzoBr4Ug-18">
          <mxGeometry y="30" width="180" height="30" as="geometry" />
        </mxCell>
        <mxCell id="TmXR3nSOroDPRzoBr4Ug-20" value="PK" style="shape=partialRectangle;connectable=0;fillColor=none;top=0;left=0;bottom=0;right=0;fontStyle=1;overflow=hidden;" vertex="1" parent="TmXR3nSOroDPRzoBr4Ug-19">
          <mxGeometry width="30" height="30" as="geometry">
            <mxRectangle width="30" height="30" as="alternateBounds" />
          </mxGeometry>
        </mxCell>
        <mxCell id="TmXR3nSOroDPRzoBr4Ug-21" value="id" style="shape=partialRectangle;connectable=0;fillColor=none;top=0;left=0;bottom=0;right=0;align=left;spacingLeft=6;fontStyle=1;overflow=hidden;" vertex="1" parent="TmXR3nSOroDPRzoBr4Ug-19">
          <mxGeometry x="30" width="150" height="30" as="geometry">
            <mxRectangle width="150" height="30" as="alternateBounds" />
          </mxGeometry>
        </mxCell>
        <mxCell id="TmXR3nSOroDPRzoBr4Ug-22" value="" style="shape=tableRow;horizontal=0;startSize=0;swimlaneHead=0;swimlaneBody=0;fillColor=none;collapsible=0;dropTarget=0;points=[[0,0.5],[1,0.5]];portConstraint=eastwest;top=0;left=0;right=0;bottom=0;" vertex="1" parent="TmXR3nSOroDPRzoBr4Ug-18">
          <mxGeometry y="60" width="180" height="30" as="geometry" />
        </mxCell>
        <mxCell id="TmXR3nSOroDPRzoBr4Ug-23" value="" style="shape=partialRectangle;connectable=0;fillColor=none;top=0;left=0;bottom=0;right=0;editable=1;overflow=hidden;" vertex="1" parent="TmXR3nSOroDPRzoBr4Ug-22">
          <mxGeometry width="30" height="30" as="geometry">
            <mxRectangle width="30" height="30" as="alternateBounds" />
          </mxGeometry>
        </mxCell>
        <mxCell id="TmXR3nSOroDPRzoBr4Ug-24" value="fname" style="shape=partialRectangle;connectable=0;fillColor=none;top=0;left=0;bottom=0;right=0;align=left;spacingLeft=6;overflow=hidden;" vertex="1" parent="TmXR3nSOroDPRzoBr4Ug-22">
          <mxGeometry x="30" width="150" height="30" as="geometry">
            <mxRectangle width="150" height="30" as="alternateBounds" />
          </mxGeometry>
        </mxCell>
        <mxCell id="TmXR3nSOroDPRzoBr4Ug-25" value="" style="shape=tableRow;horizontal=0;startSize=0;swimlaneHead=0;swimlaneBody=0;fillColor=none;collapsible=0;dropTarget=0;points=[[0,0.5],[1,0.5]];portConstraint=eastwest;top=0;left=0;right=0;bottom=0;" vertex="1" parent="TmXR3nSOroDPRzoBr4Ug-18">
          <mxGeometry y="90" width="180" height="30" as="geometry" />
        </mxCell>
        <mxCell id="TmXR3nSOroDPRzoBr4Ug-26" value="" style="shape=partialRectangle;connectable=0;fillColor=none;top=0;left=0;bottom=0;right=0;editable=1;overflow=hidden;" vertex="1" parent="TmXR3nSOroDPRzoBr4Ug-25">
          <mxGeometry width="30" height="30" as="geometry">
            <mxRectangle width="30" height="30" as="alternateBounds" />
          </mxGeometry>
        </mxCell>
        <mxCell id="TmXR3nSOroDPRzoBr4Ug-27" value="lname" style="shape=partialRectangle;connectable=0;fillColor=none;top=0;left=0;bottom=0;right=0;align=left;spacingLeft=6;overflow=hidden;" vertex="1" parent="TmXR3nSOroDPRzoBr4Ug-25">
          <mxGeometry x="30" width="150" height="30" as="geometry">
            <mxRectangle width="150" height="30" as="alternateBounds" />
          </mxGeometry>
        </mxCell>
        <mxCell id="TmXR3nSOroDPRzoBr4Ug-28" value="" style="shape=tableRow;horizontal=0;startSize=0;swimlaneHead=0;swimlaneBody=0;fillColor=none;collapsible=0;dropTarget=0;points=[[0,0.5],[1,0.5]];portConstraint=eastwest;top=0;left=0;right=0;bottom=0;" vertex="1" parent="TmXR3nSOroDPRzoBr4Ug-18">
          <mxGeometry y="120" width="180" height="30" as="geometry" />
        </mxCell>
        <mxCell id="TmXR3nSOroDPRzoBr4Ug-29" value="" style="shape=partialRectangle;connectable=0;fillColor=none;top=0;left=0;bottom=0;right=0;editable=1;overflow=hidden;" vertex="1" parent="TmXR3nSOroDPRzoBr4Ug-28">
          <mxGeometry width="30" height="30" as="geometry">
            <mxRectangle width="30" height="30" as="alternateBounds" />
          </mxGeometry>
        </mxCell>
        <mxCell id="TmXR3nSOroDPRzoBr4Ug-30" value="password" style="shape=partialRectangle;connectable=0;fillColor=none;top=0;left=0;bottom=0;right=0;align=left;spacingLeft=6;overflow=hidden;" vertex="1" parent="TmXR3nSOroDPRzoBr4Ug-28">
          <mxGeometry x="30" width="150" height="30" as="geometry">
            <mxRectangle width="150" height="30" as="alternateBounds" />
          </mxGeometry>
        </mxCell>
        <mxCell id="TmXR3nSOroDPRzoBr4Ug-31" value="" style="shape=tableRow;horizontal=0;startSize=0;swimlaneHead=0;swimlaneBody=0;fillColor=none;collapsible=0;dropTarget=0;points=[[0,0.5],[1,0.5]];portConstraint=eastwest;top=0;left=0;right=0;bottom=1;" vertex="1" parent="TmXR3nSOroDPRzoBr4Ug-18">
          <mxGeometry y="150" width="180" height="30" as="geometry" />
        </mxCell>
        <mxCell id="TmXR3nSOroDPRzoBr4Ug-32" value="FK" style="shape=partialRectangle;connectable=0;fillColor=none;top=0;left=0;bottom=0;right=0;fontStyle=0;overflow=hidden;" vertex="1" parent="TmXR3nSOroDPRzoBr4Ug-31">
          <mxGeometry width="30" height="30" as="geometry">
            <mxRectangle width="30" height="30" as="alternateBounds" />
          </mxGeometry>
        </mxCell>
        <mxCell id="TmXR3nSOroDPRzoBr4Ug-33" value="faculty" style="shape=partialRectangle;connectable=0;fillColor=none;top=0;left=0;bottom=0;right=0;align=left;spacingLeft=6;fontStyle=0;overflow=hidden;" vertex="1" parent="TmXR3nSOroDPRzoBr4Ug-31">
          <mxGeometry x="30" width="150" height="30" as="geometry">
            <mxRectangle width="150" height="30" as="alternateBounds" />
          </mxGeometry>
        </mxCell>
        <mxCell id="TmXR3nSOroDPRzoBr4Ug-34" value="Faculty" style="shape=table;startSize=30;container=1;collapsible=1;childLayout=tableLayout;fixedRows=1;rowLines=0;fontStyle=1;align=center;resizeLast=1;strokeWidth=2;" vertex="1" parent="TmXR3nSOroDPRzoBr4Ug-1">
          <mxGeometry x="120" y="310" width="180" height="90" as="geometry" />
        </mxCell>
        <mxCell id="TmXR3nSOroDPRzoBr4Ug-35" value="" style="shape=tableRow;horizontal=0;startSize=0;swimlaneHead=0;swimlaneBody=0;fillColor=none;collapsible=0;dropTarget=0;points=[[0,0.5],[1,0.5]];portConstraint=eastwest;top=0;left=0;right=0;bottom=1;" vertex="1" parent="TmXR3nSOroDPRzoBr4Ug-34">
          <mxGeometry y="30" width="180" height="30" as="geometry" />
        </mxCell>
        <mxCell id="TmXR3nSOroDPRzoBr4Ug-36" value="PK" style="shape=partialRectangle;connectable=0;fillColor=none;top=0;left=0;bottom=0;right=0;fontStyle=1;overflow=hidden;" vertex="1" parent="TmXR3nSOroDPRzoBr4Ug-35">
          <mxGeometry width="30" height="30" as="geometry">
            <mxRectangle width="30" height="30" as="alternateBounds" />
          </mxGeometry>
        </mxCell>
        <mxCell id="TmXR3nSOroDPRzoBr4Ug-37" value="id" style="shape=partialRectangle;connectable=0;fillColor=none;top=0;left=0;bottom=0;right=0;align=left;spacingLeft=6;fontStyle=1;overflow=hidden;" vertex="1" parent="TmXR3nSOroDPRzoBr4Ug-35">
          <mxGeometry x="30" width="150" height="30" as="geometry">
            <mxRectangle width="150" height="30" as="alternateBounds" />
          </mxGeometry>
        </mxCell>
        <mxCell id="TmXR3nSOroDPRzoBr4Ug-38" value="" style="shape=tableRow;horizontal=0;startSize=0;swimlaneHead=0;swimlaneBody=0;fillColor=none;collapsible=0;dropTarget=0;points=[[0,0.5],[1,0.5]];portConstraint=eastwest;top=0;left=0;right=0;bottom=0;" vertex="1" parent="TmXR3nSOroDPRzoBr4Ug-34">
          <mxGeometry y="60" width="180" height="30" as="geometry" />
        </mxCell>
        <mxCell id="TmXR3nSOroDPRzoBr4Ug-39" value="" style="shape=partialRectangle;connectable=0;fillColor=none;top=0;left=0;bottom=0;right=0;editable=1;overflow=hidden;" vertex="1" parent="TmXR3nSOroDPRzoBr4Ug-38">
          <mxGeometry width="30" height="30" as="geometry">
            <mxRectangle width="30" height="30" as="alternateBounds" />
          </mxGeometry>
        </mxCell>
        <mxCell id="TmXR3nSOroDPRzoBr4Ug-40" value="name" style="shape=partialRectangle;connectable=0;fillColor=none;top=0;left=0;bottom=0;right=0;align=left;spacingLeft=6;overflow=hidden;" vertex="1" parent="TmXR3nSOroDPRzoBr4Ug-38">
          <mxGeometry x="30" width="150" height="30" as="geometry">
            <mxRectangle width="150" height="30" as="alternateBounds" />
          </mxGeometry>
        </mxCell>
        <mxCell id="TmXR3nSOroDPRzoBr4Ug-41" value="Activity_Status" style="shape=table;startSize=30;container=1;collapsible=1;childLayout=tableLayout;fixedRows=1;rowLines=0;fontStyle=1;align=center;resizeLast=1;strokeWidth=2;" vertex="1" parent="TmXR3nSOroDPRzoBr4Ug-1">
          <mxGeometry x="140" y="460" width="180" height="180" as="geometry" />
        </mxCell>
        <mxCell id="TmXR3nSOroDPRzoBr4Ug-42" value="" style="shape=tableRow;horizontal=0;startSize=0;swimlaneHead=0;swimlaneBody=0;fillColor=none;collapsible=0;dropTarget=0;points=[[0,0.5],[1,0.5]];portConstraint=eastwest;top=0;left=0;right=0;bottom=1;" vertex="1" parent="TmXR3nSOroDPRzoBr4Ug-41">
          <mxGeometry y="30" width="180" height="30" as="geometry" />
        </mxCell>
        <mxCell id="TmXR3nSOroDPRzoBr4Ug-43" value="PK" style="shape=partialRectangle;connectable=0;fillColor=none;top=0;left=0;bottom=0;right=0;fontStyle=1;overflow=hidden;" vertex="1" parent="TmXR3nSOroDPRzoBr4Ug-42">
          <mxGeometry width="30" height="30" as="geometry">
            <mxRectangle width="30" height="30" as="alternateBounds" />
          </mxGeometry>
        </mxCell>
        <mxCell id="TmXR3nSOroDPRzoBr4Ug-44" value="activityID" style="shape=partialRectangle;connectable=0;fillColor=none;top=0;left=0;bottom=0;right=0;align=left;spacingLeft=6;fontStyle=1;overflow=hidden;" vertex="1" parent="TmXR3nSOroDPRzoBr4Ug-42">
          <mxGeometry x="30" width="150" height="30" as="geometry">
            <mxRectangle width="150" height="30" as="alternateBounds" />
          </mxGeometry>
        </mxCell>
        <mxCell id="TmXR3nSOroDPRzoBr4Ug-45" value="" style="shape=tableRow;horizontal=0;startSize=0;swimlaneHead=0;swimlaneBody=0;fillColor=none;collapsible=0;dropTarget=0;points=[[0,0.5],[1,0.5]];portConstraint=eastwest;top=0;left=0;right=0;bottom=1;" vertex="1" parent="TmXR3nSOroDPRzoBr4Ug-41">
          <mxGeometry y="60" width="180" height="30" as="geometry" />
        </mxCell>
        <mxCell id="TmXR3nSOroDPRzoBr4Ug-46" value="PK" style="shape=partialRectangle;connectable=0;fillColor=none;top=0;left=0;bottom=0;right=0;fontStyle=1;overflow=hidden;" vertex="1" parent="TmXR3nSOroDPRzoBr4Ug-45">
          <mxGeometry width="30" height="30" as="geometry">
            <mxRectangle width="30" height="30" as="alternateBounds" />
          </mxGeometry>
        </mxCell>
        <mxCell id="TmXR3nSOroDPRzoBr4Ug-47" value="studentID" style="shape=partialRectangle;connectable=0;fillColor=none;top=0;left=0;bottom=0;right=0;align=left;spacingLeft=6;fontStyle=1;overflow=hidden;" vertex="1" parent="TmXR3nSOroDPRzoBr4Ug-45">
          <mxGeometry x="30" width="150" height="30" as="geometry">
            <mxRectangle width="150" height="30" as="alternateBounds" />
          </mxGeometry>
        </mxCell>
        <mxCell id="TmXR3nSOroDPRzoBr4Ug-48" value="" style="shape=tableRow;horizontal=0;startSize=0;swimlaneHead=0;swimlaneBody=0;fillColor=none;collapsible=0;dropTarget=0;points=[[0,0.5],[1,0.5]];portConstraint=eastwest;top=0;left=0;right=0;bottom=0;" vertex="1" parent="TmXR3nSOroDPRzoBr4Ug-41">
          <mxGeometry y="90" width="180" height="30" as="geometry" />
        </mxCell>
        <mxCell id="TmXR3nSOroDPRzoBr4Ug-49" value="" style="shape=partialRectangle;connectable=0;fillColor=none;top=0;left=0;bottom=0;right=0;editable=1;overflow=hidden;" vertex="1" parent="TmXR3nSOroDPRzoBr4Ug-48">
          <mxGeometry width="30" height="30" as="geometry">
            <mxRectangle width="30" height="30" as="alternateBounds" />
          </mxGeometry>
        </mxCell>
        <mxCell id="TmXR3nSOroDPRzoBr4Ug-50" value="status" style="shape=partialRectangle;connectable=0;fillColor=none;top=0;left=0;bottom=0;right=0;align=left;spacingLeft=6;overflow=hidden;" vertex="1" parent="TmXR3nSOroDPRzoBr4Ug-48">
          <mxGeometry x="30" width="150" height="30" as="geometry">
            <mxRectangle width="150" height="30" as="alternateBounds" />
          </mxGeometry>
        </mxCell>
        <mxCell id="TmXR3nSOroDPRzoBr4Ug-51" value="" style="shape=tableRow;horizontal=0;startSize=0;swimlaneHead=0;swimlaneBody=0;fillColor=none;collapsible=0;dropTarget=0;points=[[0,0.5],[1,0.5]];portConstraint=eastwest;top=0;left=0;right=0;bottom=0;" vertex="1" parent="TmXR3nSOroDPRzoBr4Ug-41">
          <mxGeometry y="120" width="180" height="30" as="geometry" />
        </mxCell>
        <mxCell id="TmXR3nSOroDPRzoBr4Ug-52" value="" style="shape=partialRectangle;connectable=0;fillColor=none;top=0;left=0;bottom=0;right=0;editable=1;overflow=hidden;" vertex="1" parent="TmXR3nSOroDPRzoBr4Ug-51">
          <mxGeometry width="30" height="30" as="geometry">
            <mxRectangle width="30" height="30" as="alternateBounds" />
          </mxGeometry>
        </mxCell>
        <mxCell id="TmXR3nSOroDPRzoBr4Ug-53" value="timeEnroll" style="shape=partialRectangle;connectable=0;fillColor=none;top=0;left=0;bottom=0;right=0;align=left;spacingLeft=6;overflow=hidden;" vertex="1" parent="TmXR3nSOroDPRzoBr4Ug-51">
          <mxGeometry x="30" width="150" height="30" as="geometry">
            <mxRectangle width="150" height="30" as="alternateBounds" />
          </mxGeometry>
        </mxCell>
        <mxCell id="TmXR3nSOroDPRzoBr4Ug-54" value="" style="shape=tableRow;horizontal=0;startSize=0;swimlaneHead=0;swimlaneBody=0;fillColor=none;collapsible=0;dropTarget=0;points=[[0,0.5],[1,0.5]];portConstraint=eastwest;top=0;left=0;right=0;bottom=0;" vertex="1" parent="TmXR3nSOroDPRzoBr4Ug-41">
          <mxGeometry y="150" width="180" height="30" as="geometry" />
        </mxCell>
        <mxCell id="TmXR3nSOroDPRzoBr4Ug-55" value="" style="shape=partialRectangle;connectable=0;fillColor=none;top=0;left=0;bottom=0;right=0;editable=1;overflow=hidden;" vertex="1" parent="TmXR3nSOroDPRzoBr4Ug-54">
          <mxGeometry width="30" height="30" as="geometry">
            <mxRectangle width="30" height="30" as="alternateBounds" />
          </mxGeometry>
        </mxCell>
        <mxCell id="TmXR3nSOroDPRzoBr4Ug-56" value="timeJoin" style="shape=partialRectangle;connectable=0;fillColor=none;top=0;left=0;bottom=0;right=0;align=left;spacingLeft=6;overflow=hidden;" vertex="1" parent="TmXR3nSOroDPRzoBr4Ug-54">
          <mxGeometry x="30" width="150" height="30" as="geometry">
            <mxRectangle width="150" height="30" as="alternateBounds" />
          </mxGeometry>
        </mxCell>
        <mxCell id="TmXR3nSOroDPRzoBr4Ug-57" value="Activity" style="shape=table;startSize=30;container=1;collapsible=1;childLayout=tableLayout;fixedRows=1;rowLines=0;fontStyle=1;align=center;resizeLast=1;strokeWidth=2;" vertex="1" parent="TmXR3nSOroDPRzoBr4Ug-1">
          <mxGeometry x="440" y="290" width="180" height="390" as="geometry" />
        </mxCell>
        <mxCell id="TmXR3nSOroDPRzoBr4Ug-58" value="" style="shape=tableRow;horizontal=0;startSize=0;swimlaneHead=0;swimlaneBody=0;fillColor=none;collapsible=0;dropTarget=0;points=[[0,0.5],[1,0.5]];portConstraint=eastwest;top=0;left=0;right=0;bottom=1;" vertex="1" parent="TmXR3nSOroDPRzoBr4Ug-57">
          <mxGeometry y="30" width="180" height="30" as="geometry" />
        </mxCell>
        <mxCell id="TmXR3nSOroDPRzoBr4Ug-59" value="PK" style="shape=partialRectangle;connectable=0;fillColor=none;top=0;left=0;bottom=0;right=0;fontStyle=1;overflow=hidden;" vertex="1" parent="TmXR3nSOroDPRzoBr4Ug-58">
          <mxGeometry width="30" height="30" as="geometry">
            <mxRectangle width="30" height="30" as="alternateBounds" />
          </mxGeometry>
        </mxCell>
        <mxCell id="TmXR3nSOroDPRzoBr4Ug-60" value="id" style="shape=partialRectangle;connectable=0;fillColor=none;top=0;left=0;bottom=0;right=0;align=left;spacingLeft=6;fontStyle=1;overflow=hidden;" vertex="1" parent="TmXR3nSOroDPRzoBr4Ug-58">
          <mxGeometry x="30" width="150" height="30" as="geometry">
            <mxRectangle width="150" height="30" as="alternateBounds" />
          </mxGeometry>
        </mxCell>
        <mxCell id="TmXR3nSOroDPRzoBr4Ug-61" value="" style="shape=tableRow;horizontal=0;startSize=0;swimlaneHead=0;swimlaneBody=0;fillColor=none;collapsible=0;dropTarget=0;points=[[0,0.5],[1,0.5]];portConstraint=eastwest;top=0;left=0;right=0;bottom=0;" vertex="1" parent="TmXR3nSOroDPRzoBr4Ug-57">
          <mxGeometry y="60" width="180" height="30" as="geometry" />
        </mxCell>
        <mxCell id="TmXR3nSOroDPRzoBr4Ug-62" value="FK" style="shape=partialRectangle;connectable=0;fillColor=none;top=0;left=0;bottom=0;right=0;editable=1;overflow=hidden;" vertex="1" parent="TmXR3nSOroDPRzoBr4Ug-61">
          <mxGeometry width="30" height="30" as="geometry">
            <mxRectangle width="30" height="30" as="alternateBounds" />
          </mxGeometry>
        </mxCell>
        <mxCell id="TmXR3nSOroDPRzoBr4Ug-63" value="creator" style="shape=partialRectangle;connectable=0;fillColor=none;top=0;left=0;bottom=0;right=0;align=left;spacingLeft=6;overflow=hidden;" vertex="1" parent="TmXR3nSOroDPRzoBr4Ug-61">
          <mxGeometry x="30" width="150" height="30" as="geometry">
            <mxRectangle width="150" height="30" as="alternateBounds" />
          </mxGeometry>
        </mxCell>
        <mxCell id="TmXR3nSOroDPRzoBr4Ug-64" value="" style="shape=tableRow;horizontal=0;startSize=0;swimlaneHead=0;swimlaneBody=0;fillColor=none;collapsible=0;dropTarget=0;points=[[0,0.5],[1,0.5]];portConstraint=eastwest;top=0;left=0;right=0;bottom=0;" vertex="1" parent="TmXR3nSOroDPRzoBr4Ug-57">
          <mxGeometry y="90" width="180" height="30" as="geometry" />
        </mxCell>
        <mxCell id="TmXR3nSOroDPRzoBr4Ug-65" value="" style="shape=partialRectangle;connectable=0;fillColor=none;top=0;left=0;bottom=0;right=0;editable=1;overflow=hidden;" vertex="1" parent="TmXR3nSOroDPRzoBr4Ug-64">
          <mxGeometry width="30" height="30" as="geometry">
            <mxRectangle width="30" height="30" as="alternateBounds" />
          </mxGeometry>
        </mxCell>
        <mxCell id="TmXR3nSOroDPRzoBr4Ug-66" value="name" style="shape=partialRectangle;connectable=0;fillColor=none;top=0;left=0;bottom=0;right=0;align=left;spacingLeft=6;overflow=hidden;" vertex="1" parent="TmXR3nSOroDPRzoBr4Ug-64">
          <mxGeometry x="30" width="150" height="30" as="geometry">
            <mxRectangle width="150" height="30" as="alternateBounds" />
          </mxGeometry>
        </mxCell>
        <mxCell id="TmXR3nSOroDPRzoBr4Ug-67" value="" style="shape=tableRow;horizontal=0;startSize=0;swimlaneHead=0;swimlaneBody=0;fillColor=none;collapsible=0;dropTarget=0;points=[[0,0.5],[1,0.5]];portConstraint=eastwest;top=0;left=0;right=0;bottom=0;" vertex="1" parent="TmXR3nSOroDPRzoBr4Ug-57">
          <mxGeometry y="120" width="180" height="30" as="geometry" />
        </mxCell>
        <mxCell id="TmXR3nSOroDPRzoBr4Ug-68" value="" style="shape=partialRectangle;connectable=0;fillColor=none;top=0;left=0;bottom=0;right=0;editable=1;overflow=hidden;" vertex="1" parent="TmXR3nSOroDPRzoBr4Ug-67">
          <mxGeometry width="30" height="30" as="geometry">
            <mxRectangle width="30" height="30" as="alternateBounds" />
          </mxGeometry>
        </mxCell>
        <mxCell id="TmXR3nSOroDPRzoBr4Ug-69" value="detail" style="shape=partialRectangle;connectable=0;fillColor=none;top=0;left=0;bottom=0;right=0;align=left;spacingLeft=6;overflow=hidden;" vertex="1" parent="TmXR3nSOroDPRzoBr4Ug-67">
          <mxGeometry x="30" width="150" height="30" as="geometry">
            <mxRectangle width="150" height="30" as="alternateBounds" />
          </mxGeometry>
        </mxCell>
        <mxCell id="TmXR3nSOroDPRzoBr4Ug-70" value="" style="shape=tableRow;horizontal=0;startSize=0;swimlaneHead=0;swimlaneBody=0;fillColor=none;collapsible=0;dropTarget=0;points=[[0,0.5],[1,0.5]];portConstraint=eastwest;top=0;left=0;right=0;bottom=0;" vertex="1" parent="TmXR3nSOroDPRzoBr4Ug-57">
          <mxGeometry y="150" width="180" height="30" as="geometry" />
        </mxCell>
        <mxCell id="TmXR3nSOroDPRzoBr4Ug-71" value="" style="shape=partialRectangle;connectable=0;fillColor=none;top=0;left=0;bottom=0;right=0;editable=1;overflow=hidden;" vertex="1" parent="TmXR3nSOroDPRzoBr4Ug-70">
          <mxGeometry width="30" height="30" as="geometry">
            <mxRectangle width="30" height="30" as="alternateBounds" />
          </mxGeometry>
        </mxCell>
        <mxCell id="TmXR3nSOroDPRzoBr4Ug-72" value="createAt" style="shape=partialRectangle;connectable=0;fillColor=none;top=0;left=0;bottom=0;right=0;align=left;spacingLeft=6;overflow=hidden;" vertex="1" parent="TmXR3nSOroDPRzoBr4Ug-70">
          <mxGeometry x="30" width="150" height="30" as="geometry">
            <mxRectangle width="150" height="30" as="alternateBounds" />
          </mxGeometry>
        </mxCell>
        <mxCell id="TmXR3nSOroDPRzoBr4Ug-73" value="" style="shape=tableRow;horizontal=0;startSize=0;swimlaneHead=0;swimlaneBody=0;fillColor=none;collapsible=0;dropTarget=0;points=[[0,0.5],[1,0.5]];portConstraint=eastwest;top=0;left=0;right=0;bottom=0;" vertex="1" parent="TmXR3nSOroDPRzoBr4Ug-57">
          <mxGeometry y="180" width="180" height="30" as="geometry" />
        </mxCell>
        <mxCell id="TmXR3nSOroDPRzoBr4Ug-74" value="" style="shape=partialRectangle;connectable=0;fillColor=none;top=0;left=0;bottom=0;right=0;editable=1;overflow=hidden;" vertex="1" parent="TmXR3nSOroDPRzoBr4Ug-73">
          <mxGeometry width="30" height="30" as="geometry">
            <mxRectangle width="30" height="30" as="alternateBounds" />
          </mxGeometry>
        </mxCell>
        <mxCell id="TmXR3nSOroDPRzoBr4Ug-75" value="location" style="shape=partialRectangle;connectable=0;fillColor=none;top=0;left=0;bottom=0;right=0;align=left;spacingLeft=6;overflow=hidden;" vertex="1" parent="TmXR3nSOroDPRzoBr4Ug-73">
          <mxGeometry x="30" width="150" height="30" as="geometry">
            <mxRectangle width="150" height="30" as="alternateBounds" />
          </mxGeometry>
        </mxCell>
        <mxCell id="TmXR3nSOroDPRzoBr4Ug-76" value="" style="shape=tableRow;horizontal=0;startSize=0;swimlaneHead=0;swimlaneBody=0;fillColor=none;collapsible=0;dropTarget=0;points=[[0,0.5],[1,0.5]];portConstraint=eastwest;top=0;left=0;right=0;bottom=0;" vertex="1" parent="TmXR3nSOroDPRzoBr4Ug-57">
          <mxGeometry y="210" width="180" height="30" as="geometry" />
        </mxCell>
        <mxCell id="TmXR3nSOroDPRzoBr4Ug-77" value="" style="shape=partialRectangle;connectable=0;fillColor=none;top=0;left=0;bottom=0;right=0;editable=1;overflow=hidden;" vertex="1" parent="TmXR3nSOroDPRzoBr4Ug-76">
          <mxGeometry width="30" height="30" as="geometry">
            <mxRectangle width="30" height="30" as="alternateBounds" />
          </mxGeometry>
        </mxCell>
        <mxCell id="TmXR3nSOroDPRzoBr4Ug-78" value="eventDate" style="shape=partialRectangle;connectable=0;fillColor=none;top=0;left=0;bottom=0;right=0;align=left;spacingLeft=6;overflow=hidden;" vertex="1" parent="TmXR3nSOroDPRzoBr4Ug-76">
          <mxGeometry x="30" width="150" height="30" as="geometry">
            <mxRectangle width="150" height="30" as="alternateBounds" />
          </mxGeometry>
        </mxCell>
        <mxCell id="TmXR3nSOroDPRzoBr4Ug-79" value="" style="shape=tableRow;horizontal=0;startSize=0;swimlaneHead=0;swimlaneBody=0;fillColor=none;collapsible=0;dropTarget=0;points=[[0,0.5],[1,0.5]];portConstraint=eastwest;top=0;left=0;right=0;bottom=0;" vertex="1" parent="TmXR3nSOroDPRzoBr4Ug-57">
          <mxGeometry y="240" width="180" height="30" as="geometry" />
        </mxCell>
        <mxCell id="TmXR3nSOroDPRzoBr4Ug-80" value="" style="shape=partialRectangle;connectable=0;fillColor=none;top=0;left=0;bottom=0;right=0;editable=1;overflow=hidden;" vertex="1" parent="TmXR3nSOroDPRzoBr4Ug-79">
          <mxGeometry width="30" height="30" as="geometry">
            <mxRectangle width="30" height="30" as="alternateBounds" />
          </mxGeometry>
        </mxCell>
        <mxCell id="TmXR3nSOroDPRzoBr4Ug-81" value="timeStart" style="shape=partialRectangle;connectable=0;fillColor=none;top=0;left=0;bottom=0;right=0;align=left;spacingLeft=6;overflow=hidden;" vertex="1" parent="TmXR3nSOroDPRzoBr4Ug-79">
          <mxGeometry x="30" width="150" height="30" as="geometry">
            <mxRectangle width="150" height="30" as="alternateBounds" />
          </mxGeometry>
        </mxCell>
        <mxCell id="TmXR3nSOroDPRzoBr4Ug-82" value="" style="shape=tableRow;horizontal=0;startSize=0;swimlaneHead=0;swimlaneBody=0;fillColor=none;collapsible=0;dropTarget=0;points=[[0,0.5],[1,0.5]];portConstraint=eastwest;top=0;left=0;right=0;bottom=0;" vertex="1" parent="TmXR3nSOroDPRzoBr4Ug-57">
          <mxGeometry y="270" width="180" height="30" as="geometry" />
        </mxCell>
        <mxCell id="TmXR3nSOroDPRzoBr4Ug-83" value="" style="shape=partialRectangle;connectable=0;fillColor=none;top=0;left=0;bottom=0;right=0;editable=1;overflow=hidden;" vertex="1" parent="TmXR3nSOroDPRzoBr4Ug-82">
          <mxGeometry width="30" height="30" as="geometry">
            <mxRectangle width="30" height="30" as="alternateBounds" />
          </mxGeometry>
        </mxCell>
        <mxCell id="TmXR3nSOroDPRzoBr4Ug-84" value="timeEnd" style="shape=partialRectangle;connectable=0;fillColor=none;top=0;left=0;bottom=0;right=0;align=left;spacingLeft=6;overflow=hidden;" vertex="1" parent="TmXR3nSOroDPRzoBr4Ug-82">
          <mxGeometry x="30" width="150" height="30" as="geometry">
            <mxRectangle width="150" height="30" as="alternateBounds" />
          </mxGeometry>
        </mxCell>
        <mxCell id="TmXR3nSOroDPRzoBr4Ug-85" value="" style="shape=tableRow;horizontal=0;startSize=0;swimlaneHead=0;swimlaneBody=0;fillColor=none;collapsible=0;dropTarget=0;points=[[0,0.5],[1,0.5]];portConstraint=eastwest;top=0;left=0;right=0;bottom=0;" vertex="1" parent="TmXR3nSOroDPRzoBr4Ug-57">
          <mxGeometry y="300" width="180" height="30" as="geometry" />
        </mxCell>
        <mxCell id="TmXR3nSOroDPRzoBr4Ug-86" value="" style="shape=partialRectangle;connectable=0;fillColor=none;top=0;left=0;bottom=0;right=0;editable=1;overflow=hidden;" vertex="1" parent="TmXR3nSOroDPRzoBr4Ug-85">
          <mxGeometry width="30" height="30" as="geometry">
            <mxRectangle width="30" height="30" as="alternateBounds" />
          </mxGeometry>
        </mxCell>
        <mxCell id="TmXR3nSOroDPRzoBr4Ug-87" value="hoursToReceive" style="shape=partialRectangle;connectable=0;fillColor=none;top=0;left=0;bottom=0;right=0;align=left;spacingLeft=6;overflow=hidden;" vertex="1" parent="TmXR3nSOroDPRzoBr4Ug-85">
          <mxGeometry x="30" width="150" height="30" as="geometry">
            <mxRectangle width="150" height="30" as="alternateBounds" />
          </mxGeometry>
        </mxCell>
        <mxCell id="TmXR3nSOroDPRzoBr4Ug-88" value="" style="shape=tableRow;horizontal=0;startSize=0;swimlaneHead=0;swimlaneBody=0;fillColor=none;collapsible=0;dropTarget=0;points=[[0,0.5],[1,0.5]];portConstraint=eastwest;top=0;left=0;right=0;bottom=0;" vertex="1" parent="TmXR3nSOroDPRzoBr4Ug-57">
          <mxGeometry y="330" width="180" height="30" as="geometry" />
        </mxCell>
        <mxCell id="TmXR3nSOroDPRzoBr4Ug-89" value="" style="shape=partialRectangle;connectable=0;fillColor=none;top=0;left=0;bottom=0;right=0;editable=1;overflow=hidden;" vertex="1" parent="TmXR3nSOroDPRzoBr4Ug-88">
          <mxGeometry width="30" height="30" as="geometry">
            <mxRectangle width="30" height="30" as="alternateBounds" />
          </mxGeometry>
        </mxCell>
        <mxCell id="TmXR3nSOroDPRzoBr4Ug-90" value="image" style="shape=partialRectangle;connectable=0;fillColor=none;top=0;left=0;bottom=0;right=0;align=left;spacingLeft=6;overflow=hidden;" vertex="1" parent="TmXR3nSOroDPRzoBr4Ug-88">
          <mxGeometry x="30" width="150" height="30" as="geometry">
            <mxRectangle width="150" height="30" as="alternateBounds" />
          </mxGeometry>
        </mxCell>
        <mxCell id="TmXR3nSOroDPRzoBr4Ug-91" value="" style="shape=tableRow;horizontal=0;startSize=0;swimlaneHead=0;swimlaneBody=0;fillColor=none;collapsible=0;dropTarget=0;points=[[0,0.5],[1,0.5]];portConstraint=eastwest;top=0;left=0;right=0;bottom=0;" vertex="1" parent="TmXR3nSOroDPRzoBr4Ug-57">
          <mxGeometry y="360" width="180" height="30" as="geometry" />
        </mxCell>
        <mxCell id="TmXR3nSOroDPRzoBr4Ug-92" value="" style="shape=partialRectangle;connectable=0;fillColor=none;top=0;left=0;bottom=0;right=0;editable=1;overflow=hidden;" vertex="1" parent="TmXR3nSOroDPRzoBr4Ug-91">
          <mxGeometry width="30" height="30" as="geometry">
            <mxRectangle width="30" height="30" as="alternateBounds" />
          </mxGeometry>
        </mxCell>
        <mxCell id="TmXR3nSOroDPRzoBr4Ug-93" value="year" style="shape=partialRectangle;connectable=0;fillColor=none;top=0;left=0;bottom=0;right=0;align=left;spacingLeft=6;overflow=hidden;" vertex="1" parent="TmXR3nSOroDPRzoBr4Ug-91">
          <mxGeometry x="30" width="150" height="30" as="geometry">
            <mxRectangle width="150" height="30" as="alternateBounds" />
          </mxGeometry>
        </mxCell>
        <mxCell id="TmXR3nSOroDPRzoBr4Ug-94" value="" style="edgeStyle=orthogonalEdgeStyle;fontSize=12;html=1;endArrow=ERoneToMany;rounded=0;exitX=1;exitY=0.5;exitDx=0;exitDy=0;entryX=0;entryY=0.5;entryDx=0;entryDy=0;strokeWidth=2;" edge="1" parent="TmXR3nSOroDPRzoBr4Ug-1" source="TmXR3nSOroDPRzoBr4Ug-35" target="TmXR3nSOroDPRzoBr4Ug-31">
          <mxGeometry width="100" height="100" relative="1" as="geometry">
            <mxPoint x="350" y="390" as="sourcePoint" />
            <mxPoint x="520" y="260" as="targetPoint" />
          </mxGeometry>
        </mxCell>
        <mxCell id="TmXR3nSOroDPRzoBr4Ug-95" value="" style="fontSize=12;html=1;endArrow=ERoneToMany;rounded=0;entryX=0;entryY=0.5;entryDx=0;entryDy=0;edgeStyle=orthogonalEdgeStyle;exitX=0;exitY=0.667;exitDx=0;exitDy=0;exitPerimeter=0;strokeWidth=2;" edge="1" parent="TmXR3nSOroDPRzoBr4Ug-1" source="TmXR3nSOroDPRzoBr4Ug-35" target="TmXR3nSOroDPRzoBr4Ug-15">
          <mxGeometry width="100" height="100" relative="1" as="geometry">
            <mxPoint x="50" y="360" as="sourcePoint" />
            <mxPoint x="150" y="270" as="targetPoint" />
            <Array as="points">
              <mxPoint x="80" y="360" />
              <mxPoint x="80" y="205" />
            </Array>
          </mxGeometry>
        </mxCell>
        <mxCell id="TmXR3nSOroDPRzoBr4Ug-96" value="" style="edgeStyle=orthogonalEdgeStyle;fontSize=12;html=1;endArrow=ERoneToMany;rounded=0;entryX=0;entryY=0.5;entryDx=0;entryDy=0;exitX=0;exitY=0.5;exitDx=0;exitDy=0;strokeWidth=2;" edge="1" parent="TmXR3nSOroDPRzoBr4Ug-1" source="TmXR3nSOroDPRzoBr4Ug-3" target="TmXR3nSOroDPRzoBr4Ug-45">
          <mxGeometry width="100" height="100" relative="1" as="geometry">
            <mxPoint x="20" y="440" as="sourcePoint" />
            <mxPoint x="140" y="530" as="targetPoint" />
            <Array as="points">
              <mxPoint x="40" y="85" />
              <mxPoint x="40" y="535" />
            </Array>
          </mxGeometry>
        </mxCell>
        <mxCell id="TmXR3nSOroDPRzoBr4Ug-97" value="" style="edgeStyle=orthogonalEdgeStyle;fontSize=12;html=1;endArrow=ERoneToMany;rounded=0;entryX=1;entryY=0.5;entryDx=0;entryDy=0;exitX=1;exitY=0.5;exitDx=0;exitDy=0;strokeWidth=2;" edge="1" parent="TmXR3nSOroDPRzoBr4Ug-1" source="TmXR3nSOroDPRzoBr4Ug-19" target="TmXR3nSOroDPRzoBr4Ug-61">
          <mxGeometry width="100" height="100" relative="1" as="geometry">
            <mxPoint x="460" y="390" as="sourcePoint" />
            <mxPoint x="560" y="290" as="targetPoint" />
            <Array as="points">
              <mxPoint x="680" y="85" />
              <mxPoint x="680" y="365" />
            </Array>
          </mxGeometry>
        </mxCell>
        <mxCell id="TmXR3nSOroDPRzoBr4Ug-98" value="" style="edgeStyle=orthogonalEdgeStyle;fontSize=12;html=1;endArrow=ERoneToMany;rounded=0;entryX=1;entryY=0.5;entryDx=0;entryDy=0;exitX=0;exitY=0.5;exitDx=0;exitDy=0;strokeWidth=2;" edge="1" parent="TmXR3nSOroDPRzoBr4Ug-1" source="TmXR3nSOroDPRzoBr4Ug-58" target="TmXR3nSOroDPRzoBr4Ug-42">
          <mxGeometry width="100" height="100" relative="1" as="geometry">
            <mxPoint x="460" y="390" as="sourcePoint" />
            <mxPoint x="560" y="290" as="targetPoint" />
          </mxGeometry>
        </mxCell>
        <mxCell id="BkT9n5drXxGYG9BiNJrz-0" value="Teacher_Connect" style="shape=table;startSize=30;container=1;collapsible=1;childLayout=tableLayout;fixedRows=1;rowLines=0;fontStyle=1;align=center;resizeLast=1;strokeWidth=2;" vertex="1" parent="TmXR3nSOroDPRzoBr4Ug-1">
          <mxGeometry x="380" y="-90" width="180" height="90" as="geometry" />
        </mxCell>
        <mxCell id="BkT9n5drXxGYG9BiNJrz-1" value="" style="shape=tableRow;horizontal=0;startSize=0;swimlaneHead=0;swimlaneBody=0;fillColor=none;collapsible=0;dropTarget=0;points=[[0,0.5],[1,0.5]];portConstraint=eastwest;top=0;left=0;right=0;bottom=1;" vertex="1" parent="BkT9n5drXxGYG9BiNJrz-0">
          <mxGeometry y="30" width="180" height="30" as="geometry" />
        </mxCell>
        <mxCell id="BkT9n5drXxGYG9BiNJrz-2" value="PK" style="shape=partialRectangle;connectable=0;fillColor=none;top=0;left=0;bottom=0;right=0;fontStyle=1;overflow=hidden;" vertex="1" parent="BkT9n5drXxGYG9BiNJrz-1">
          <mxGeometry width="30" height="30" as="geometry">
            <mxRectangle width="30" height="30" as="alternateBounds" />
          </mxGeometry>
        </mxCell>
        <mxCell id="BkT9n5drXxGYG9BiNJrz-3" value="lineID" style="shape=partialRectangle;connectable=0;fillColor=none;top=0;left=0;bottom=0;right=0;align=left;spacingLeft=6;fontStyle=1;overflow=hidden;" vertex="1" parent="BkT9n5drXxGYG9BiNJrz-1">
          <mxGeometry x="30" width="150" height="30" as="geometry">
            <mxRectangle width="150" height="30" as="alternateBounds" />
          </mxGeometry>
        </mxCell>
        <mxCell id="BkT9n5drXxGYG9BiNJrz-4" value="" style="shape=tableRow;horizontal=0;startSize=0;swimlaneHead=0;swimlaneBody=0;fillColor=none;collapsible=0;dropTarget=0;points=[[0,0.5],[1,0.5]];portConstraint=eastwest;top=0;left=0;right=0;bottom=0;" vertex="1" parent="BkT9n5drXxGYG9BiNJrz-0">
          <mxGeometry y="60" width="180" height="30" as="geometry" />
        </mxCell>
        <mxCell id="BkT9n5drXxGYG9BiNJrz-5" value="PK" style="shape=partialRectangle;connectable=0;fillColor=none;top=0;left=0;bottom=0;right=0;editable=1;overflow=hidden;" vertex="1" parent="BkT9n5drXxGYG9BiNJrz-4">
          <mxGeometry width="30" height="30" as="geometry">
            <mxRectangle width="30" height="30" as="alternateBounds" />
          </mxGeometry>
        </mxCell>
        <mxCell id="BkT9n5drXxGYG9BiNJrz-6" value="teacherID" style="shape=partialRectangle;connectable=0;fillColor=none;top=0;left=0;bottom=0;right=0;align=left;spacingLeft=6;overflow=hidden;" vertex="1" parent="BkT9n5drXxGYG9BiNJrz-4">
          <mxGeometry x="30" width="150" height="30" as="geometry">
            <mxRectangle width="150" height="30" as="alternateBounds" />
          </mxGeometry>
        </mxCell>
        <mxCell id="BkT9n5drXxGYG9BiNJrz-7" value="Student_Connect" style="shape=table;startSize=30;container=1;collapsible=1;childLayout=tableLayout;fixedRows=1;rowLines=0;fontStyle=1;align=center;resizeLast=1;strokeWidth=2;" vertex="1" parent="TmXR3nSOroDPRzoBr4Ug-1">
          <mxGeometry x="120" y="-90" width="180" height="90" as="geometry" />
        </mxCell>
        <mxCell id="BkT9n5drXxGYG9BiNJrz-8" value="" style="shape=tableRow;horizontal=0;startSize=0;swimlaneHead=0;swimlaneBody=0;fillColor=none;collapsible=0;dropTarget=0;points=[[0,0.5],[1,0.5]];portConstraint=eastwest;top=0;left=0;right=0;bottom=1;" vertex="1" parent="BkT9n5drXxGYG9BiNJrz-7">
          <mxGeometry y="30" width="180" height="30" as="geometry" />
        </mxCell>
        <mxCell id="BkT9n5drXxGYG9BiNJrz-9" value="PK" style="shape=partialRectangle;connectable=0;fillColor=none;top=0;left=0;bottom=0;right=0;fontStyle=1;overflow=hidden;" vertex="1" parent="BkT9n5drXxGYG9BiNJrz-8">
          <mxGeometry width="30" height="30" as="geometry">
            <mxRectangle width="30" height="30" as="alternateBounds" />
          </mxGeometry>
        </mxCell>
        <mxCell id="BkT9n5drXxGYG9BiNJrz-10" value="lineID" style="shape=partialRectangle;connectable=0;fillColor=none;top=0;left=0;bottom=0;right=0;align=left;spacingLeft=6;fontStyle=1;overflow=hidden;" vertex="1" parent="BkT9n5drXxGYG9BiNJrz-8">
          <mxGeometry x="30" width="150" height="30" as="geometry">
            <mxRectangle width="150" height="30" as="alternateBounds" />
          </mxGeometry>
        </mxCell>
        <mxCell id="BkT9n5drXxGYG9BiNJrz-11" value="" style="shape=tableRow;horizontal=0;startSize=0;swimlaneHead=0;swimlaneBody=0;fillColor=none;collapsible=0;dropTarget=0;points=[[0,0.5],[1,0.5]];portConstraint=eastwest;top=0;left=0;right=0;bottom=0;" vertex="1" parent="BkT9n5drXxGYG9BiNJrz-7">
          <mxGeometry y="60" width="180" height="30" as="geometry" />
        </mxCell>
        <mxCell id="BkT9n5drXxGYG9BiNJrz-12" value="PK" style="shape=partialRectangle;connectable=0;fillColor=none;top=0;left=0;bottom=0;right=0;editable=1;overflow=hidden;" vertex="1" parent="BkT9n5drXxGYG9BiNJrz-11">
          <mxGeometry width="30" height="30" as="geometry">
            <mxRectangle width="30" height="30" as="alternateBounds" />
          </mxGeometry>
        </mxCell>
        <mxCell id="BkT9n5drXxGYG9BiNJrz-13" value="studentID" style="shape=partialRectangle;connectable=0;fillColor=none;top=0;left=0;bottom=0;right=0;align=left;spacingLeft=6;overflow=hidden;" vertex="1" parent="BkT9n5drXxGYG9BiNJrz-11">
          <mxGeometry x="30" width="150" height="30" as="geometry">
            <mxRectangle width="150" height="30" as="alternateBounds" />
          </mxGeometry>
        </mxCell>
        <mxCell id="BkT9n5drXxGYG9BiNJrz-17" value="" style="edgeStyle=orthogonalEdgeStyle;fontSize=12;html=1;endArrow=ERoneToMany;rounded=0;strokeWidth=2;exitX=0;exitY=0.5;exitDx=0;exitDy=0;" edge="1" parent="TmXR3nSOroDPRzoBr4Ug-1" source="BkT9n5drXxGYG9BiNJrz-4">
          <mxGeometry width="100" height="100" relative="1" as="geometry">
            <mxPoint x="470" y="-90" as="sourcePoint" />
            <mxPoint x="380" y="85" as="targetPoint" />
            <Array as="points">
              <mxPoint x="350" y="-15" />
              <mxPoint x="350" y="85" />
            </Array>
          </mxGeometry>
        </mxCell>
      </root>
    </mxGraphModel>
  </diagram>
  <diagram id="wwe7_tNX3QTFJGJZgksO" name="Context Diagram">
    <mxGraphModel dx="1282" dy="569" grid="1" gridSize="10" guides="1" tooltips="1" connect="1" arrows="1" fold="1" page="1" pageScale="1" pageWidth="660" pageHeight="440" math="0" shadow="0">
      <root>
        <mxCell id="0" />
        <mxCell id="1" parent="0" />
        <mxCell id="YcezZDshK6aGUk0AWoAK-31" value="" style="group;verticalAlign=middle;" parent="1" vertex="1" connectable="0">
          <mxGeometry x="270" y="170" width="120" height="105" as="geometry" />
        </mxCell>
        <mxCell id="YcezZDshK6aGUk0AWoAK-28" value="" style="rounded=1;whiteSpace=wrap;html=1;absoluteArcSize=1;arcSize=14;strokeWidth=2;fillColor=none;" parent="YcezZDshK6aGUk0AWoAK-31" vertex="1">
          <mxGeometry width="120" height="100" as="geometry" />
        </mxCell>
        <mxCell id="YcezZDshK6aGUk0AWoAK-35" value="" style="group" parent="YcezZDshK6aGUk0AWoAK-31" vertex="1" connectable="0">
          <mxGeometry width="120" height="100" as="geometry" />
        </mxCell>
        <mxCell id="YcezZDshK6aGUk0AWoAK-30" value="" style="shape=partialRectangle;whiteSpace=wrap;html=1;right=0;top=0;bottom=0;fillColor=none;routingCenterX=-0.5;rounded=1;rotation=90;strokeWidth=2;" parent="YcezZDshK6aGUk0AWoAK-35" vertex="1">
          <mxGeometry x="25" y="5" width="70" height="120" as="geometry" />
        </mxCell>
        <mxCell id="YcezZDshK6aGUk0AWoAK-34" value="" style="group" parent="YcezZDshK6aGUk0AWoAK-35" vertex="1" connectable="0">
          <mxGeometry width="120" height="90" as="geometry" />
        </mxCell>
        <mxCell id="YcezZDshK6aGUk0AWoAK-32" value="0" style="text;html=1;resizable=0;autosize=1;align=center;verticalAlign=middle;points=[];fillColor=none;rounded=0;strokeWidth=2;" parent="YcezZDshK6aGUk0AWoAK-34" vertex="1">
          <mxGeometry x="45" width="30" height="30" as="geometry" />
        </mxCell>
        <mxCell id="YcezZDshK6aGUk0AWoAK-37" value="&lt;p style=&quot;orphans: 2; text-indent: 0px; widows: 2; background-color: rgb(248, 249, 250); text-decoration-thickness: initial; text-decoration-style: initial; text-decoration-color: initial; line-height: 100%;&quot;&gt;&lt;font color=&quot;#000000&quot;&gt;ระบบงานเก็บชั่วโมง&lt;br&gt;ทุนกิจกรรม&lt;/font&gt;&lt;br&gt;&lt;/p&gt;" style="text;whiteSpace=wrap;html=1;fontColor=#095C86;align=center;verticalAlign=middle;" parent="YcezZDshK6aGUk0AWoAK-35" vertex="1">
          <mxGeometry y="35" width="120" height="60" as="geometry" />
        </mxCell>
        <mxCell id="YcezZDshK6aGUk0AWoAK-38" value="" style="group" parent="1" vertex="1" connectable="0">
          <mxGeometry x="40" y="40" width="100" height="100" as="geometry" />
        </mxCell>
        <mxCell id="YcezZDshK6aGUk0AWoAK-21" value="&lt;p style=&quot;line-height: 120%;&quot;&gt;&lt;br&gt;&lt;/p&gt;" style="rounded=0;whiteSpace=wrap;html=1;absoluteArcSize=1;arcSize=14;strokeWidth=2;fillColor=none;" parent="YcezZDshK6aGUk0AWoAK-38" vertex="1">
          <mxGeometry width="100" height="100" as="geometry" />
        </mxCell>
        <mxCell id="YcezZDshK6aGUk0AWoAK-36" value="&lt;p style=&quot;color: rgb(0, 0, 0); font-family: Helvetica; font-size: 12px; font-style: normal; font-variant-ligatures: normal; font-variant-caps: normal; font-weight: 400; letter-spacing: normal; orphans: 2; text-indent: 0px; text-transform: none; widows: 2; word-spacing: 0px; -webkit-text-stroke-width: 0px; background-color: rgb(248, 249, 250); text-decoration-thickness: initial; text-decoration-style: initial; text-decoration-color: initial; line-height: 100%;&quot;&gt;นักศึกษาทุนของ&lt;span style=&quot;background-color: initial;&quot;&gt;มหาวิทยาลัยรังสิต&lt;/span&gt;&lt;br&gt;&lt;/p&gt;" style="text;whiteSpace=wrap;html=1;fontColor=#095C86;align=center;verticalAlign=middle;" parent="YcezZDshK6aGUk0AWoAK-38" vertex="1">
          <mxGeometry x="5" y="20" width="90" height="60" as="geometry" />
        </mxCell>
        <mxCell id="YcezZDshK6aGUk0AWoAK-39" value="" style="group" parent="1" vertex="1" connectable="0">
          <mxGeometry x="40" y="170" width="100" height="100" as="geometry" />
        </mxCell>
        <mxCell id="YcezZDshK6aGUk0AWoAK-40" value="&lt;p style=&quot;line-height: 120%;&quot;&gt;&lt;br&gt;&lt;/p&gt;" style="rounded=0;whiteSpace=wrap;html=1;absoluteArcSize=1;arcSize=14;strokeWidth=2;fillColor=none;" parent="YcezZDshK6aGUk0AWoAK-39" vertex="1">
          <mxGeometry width="100" height="100" as="geometry" />
        </mxCell>
        <mxCell id="YcezZDshK6aGUk0AWoAK-41" value="&lt;p style=&quot;orphans: 2; text-indent: 0px; widows: 2; background-color: rgb(248, 249, 250); text-decoration-thickness: initial; text-decoration-style: initial; text-decoration-color: initial; line-height: 100%;&quot;&gt;&lt;font color=&quot;#000000&quot;&gt;อาจารย์หรือ หน่วยงานที่จัดกิจกรรม&lt;/font&gt;&lt;br&gt;&lt;/p&gt;" style="text;whiteSpace=wrap;html=1;fontColor=#095C86;align=center;verticalAlign=middle;" parent="YcezZDshK6aGUk0AWoAK-39" vertex="1">
          <mxGeometry x="5" y="20" width="90" height="60" as="geometry" />
        </mxCell>
        <mxCell id="YcezZDshK6aGUk0AWoAK-46" value="" style="group" parent="1" vertex="1" connectable="0">
          <mxGeometry x="40" y="300" width="100" height="100" as="geometry" />
        </mxCell>
        <mxCell id="YcezZDshK6aGUk0AWoAK-47" value="&lt;p style=&quot;line-height: 120%;&quot;&gt;&lt;br&gt;&lt;/p&gt;" style="rounded=0;whiteSpace=wrap;html=1;absoluteArcSize=1;arcSize=14;strokeWidth=2;fillColor=none;" parent="YcezZDshK6aGUk0AWoAK-46" vertex="1">
          <mxGeometry width="100" height="100" as="geometry" />
        </mxCell>
        <mxCell id="YcezZDshK6aGUk0AWoAK-48" value="&lt;p style=&quot;orphans: 2; text-indent: 0px; widows: 2; background-color: rgb(248, 249, 250); text-decoration-thickness: initial; text-decoration-style: initial; text-decoration-color: initial; line-height: 100%;&quot;&gt;&lt;font color=&quot;#000000&quot;&gt;ผู้ดูแลระบบ&lt;/font&gt;&lt;br&gt;&lt;/p&gt;" style="text;whiteSpace=wrap;html=1;fontColor=#095C86;align=center;verticalAlign=middle;" parent="YcezZDshK6aGUk0AWoAK-46" vertex="1">
          <mxGeometry y="20" width="100" height="60" as="geometry" />
        </mxCell>
        <mxCell id="YcezZDshK6aGUk0AWoAK-49" value="" style="group" parent="1" vertex="1" connectable="0">
          <mxGeometry x="520" y="175" width="100" height="100" as="geometry" />
        </mxCell>
        <mxCell id="YcezZDshK6aGUk0AWoAK-50" value="&lt;p style=&quot;line-height: 120%;&quot;&gt;&lt;br&gt;&lt;/p&gt;" style="rounded=0;whiteSpace=wrap;html=1;absoluteArcSize=1;arcSize=14;strokeWidth=2;fillColor=none;" parent="YcezZDshK6aGUk0AWoAK-49" vertex="1">
          <mxGeometry width="100" height="100" as="geometry" />
        </mxCell>
        <mxCell id="YcezZDshK6aGUk0AWoAK-51" value="&lt;p style=&quot;orphans: 2; text-indent: 0px; widows: 2; background-color: rgb(248, 249, 250); text-decoration-thickness: initial; text-decoration-style: initial; text-decoration-color: initial; line-height: 100%;&quot;&gt;&lt;font color=&quot;#000000&quot;&gt;ศูนย์นักศึกษาทุน แห่งมหาวิทยาลัยรังสิต&lt;/font&gt;&lt;br&gt;&lt;/p&gt;" style="text;whiteSpace=wrap;html=1;fontColor=#095C86;align=center;verticalAlign=middle;" parent="YcezZDshK6aGUk0AWoAK-49" vertex="1">
          <mxGeometry x="5" y="20" width="90" height="60" as="geometry" />
        </mxCell>
        <mxCell id="mWZKNS6DCEkVCs53vL7b-3" value="&lt;font color=&quot;#000000&quot;&gt;รายงานข้อมูล&lt;br&gt;นักศึกษาทุน&lt;/font&gt;" style="html=1;verticalAlign=bottom;endArrow=block;rounded=0;strokeWidth=2;fontColor=#095C86;fillColor=none;entryX=0;entryY=0.583;entryDx=0;entryDy=0;entryPerimeter=0;" parent="1" edge="1">
          <mxGeometry x="-0.0769" y="-10" width="80" relative="1" as="geometry">
            <mxPoint x="390" y="230" as="sourcePoint" />
            <mxPoint x="520" y="229.98000000000002" as="targetPoint" />
            <mxPoint as="offset" />
          </mxGeometry>
        </mxCell>
        <mxCell id="mWZKNS6DCEkVCs53vL7b-5" value="&lt;font color=&quot;#000000&quot;&gt;ชื่อผู้ใช้และรหัสผ่าน&lt;/font&gt;" style="html=1;verticalAlign=bottom;endArrow=block;rounded=0;strokeWidth=2;fontColor=#095C86;fillColor=none;" parent="1" edge="1">
          <mxGeometry x="-0.1844" y="-10" width="80" relative="1" as="geometry">
            <mxPoint x="140" y="89.52000000000001" as="sourcePoint" />
            <mxPoint x="330" y="170" as="targetPoint" />
            <mxPoint as="offset" />
            <Array as="points">
              <mxPoint x="330" y="90" />
            </Array>
          </mxGeometry>
        </mxCell>
        <mxCell id="mWZKNS6DCEkVCs53vL7b-6" value="&lt;font color=&quot;#000000&quot;&gt;ชื่อผู้ใช้&lt;br&gt;และรหัสผ่าน&lt;/font&gt;" style="html=1;verticalAlign=bottom;endArrow=block;rounded=0;strokeWidth=2;fontColor=#095C86;fillColor=none;entryX=0;entryY=0.25;entryDx=0;entryDy=0;entryPerimeter=0;" parent="1" target="YcezZDshK6aGUk0AWoAK-37" edge="1">
          <mxGeometry x="-0.1844" y="-10" width="80" relative="1" as="geometry">
            <mxPoint x="140" y="220" as="sourcePoint" />
            <mxPoint x="340" y="180" as="targetPoint" />
            <mxPoint as="offset" />
            <Array as="points">
              <mxPoint x="220" y="220" />
            </Array>
          </mxGeometry>
        </mxCell>
        <mxCell id="mWZKNS6DCEkVCs53vL7b-7" value="&lt;font color=&quot;#000000&quot;&gt;ชื่อผู้ใช้และรหัสผ่าน&lt;/font&gt;" style="html=1;verticalAlign=bottom;endArrow=block;rounded=0;strokeWidth=2;fontColor=#095C86;fillColor=none;entryX=0.5;entryY=1;entryDx=0;entryDy=0;exitX=1;exitY=0.5;exitDx=0;exitDy=0;" parent="1" source="YcezZDshK6aGUk0AWoAK-48" target="YcezZDshK6aGUk0AWoAK-28" edge="1">
          <mxGeometry x="-0.1844" y="-10" width="80" relative="1" as="geometry">
            <mxPoint x="160.0000000000001" y="109.51999999999998" as="sourcePoint" />
            <mxPoint x="350" y="190" as="targetPoint" />
            <mxPoint as="offset" />
            <Array as="points">
              <mxPoint x="330" y="350" />
            </Array>
          </mxGeometry>
        </mxCell>
      </root>
    </mxGraphModel>
  </diagram>
  <diagram name="Data Flow Diagram" id="YBkwKQgPgdPOoo1dxFqp">
    <mxGraphModel dx="1282" dy="569" grid="1" gridSize="10" guides="1" tooltips="1" connect="1" arrows="1" fold="1" page="1" pageScale="1" pageWidth="1100" pageHeight="880" math="0" shadow="0">
      <root>
        <mxCell id="yW2MhjZLvxJCwgjgdsqQ-0" />
        <mxCell id="yW2MhjZLvxJCwgjgdsqQ-1" parent="yW2MhjZLvxJCwgjgdsqQ-0" />
        <mxCell id="yW2MhjZLvxJCwgjgdsqQ-2" value="" style="group;verticalAlign=middle;" parent="yW2MhjZLvxJCwgjgdsqQ-1" vertex="1" connectable="0">
          <mxGeometry x="290" y="170" width="120" height="105" as="geometry" />
        </mxCell>
        <mxCell id="yW2MhjZLvxJCwgjgdsqQ-3" value="" style="rounded=1;whiteSpace=wrap;html=1;absoluteArcSize=1;arcSize=14;strokeWidth=2;fillColor=none;" parent="yW2MhjZLvxJCwgjgdsqQ-2" vertex="1">
          <mxGeometry width="120" height="100" as="geometry" />
        </mxCell>
        <mxCell id="yW2MhjZLvxJCwgjgdsqQ-4" value="" style="group" parent="yW2MhjZLvxJCwgjgdsqQ-2" vertex="1" connectable="0">
          <mxGeometry width="120" height="100" as="geometry" />
        </mxCell>
        <mxCell id="yW2MhjZLvxJCwgjgdsqQ-5" value="" style="shape=partialRectangle;whiteSpace=wrap;html=1;right=0;top=0;bottom=0;fillColor=none;routingCenterX=-0.5;rounded=1;rotation=90;strokeWidth=2;" parent="yW2MhjZLvxJCwgjgdsqQ-4" vertex="1">
          <mxGeometry x="25" y="5" width="70" height="120" as="geometry" />
        </mxCell>
        <mxCell id="yW2MhjZLvxJCwgjgdsqQ-6" value="" style="group" parent="yW2MhjZLvxJCwgjgdsqQ-4" vertex="1" connectable="0">
          <mxGeometry width="120" height="90" as="geometry" />
        </mxCell>
        <mxCell id="yW2MhjZLvxJCwgjgdsqQ-7" value="1.0" style="text;html=1;resizable=0;autosize=1;align=center;verticalAlign=middle;points=[];fillColor=none;rounded=0;strokeWidth=2;" parent="yW2MhjZLvxJCwgjgdsqQ-6" vertex="1">
          <mxGeometry x="40" width="40" height="30" as="geometry" />
        </mxCell>
        <mxCell id="yW2MhjZLvxJCwgjgdsqQ-8" value="&lt;p style=&quot;orphans: 2; text-indent: 0px; widows: 2; background-color: rgb(248, 249, 250); text-decoration-thickness: initial; text-decoration-style: initial; text-decoration-color: initial; line-height: 100%;&quot;&gt;&lt;font color=&quot;#000000&quot;&gt;ระบบงานเก็บชั่วโมง&lt;br&gt;ทุนกิจกรรม&lt;/font&gt;&lt;br&gt;&lt;/p&gt;" style="text;whiteSpace=wrap;html=1;fontColor=#095C86;align=center;verticalAlign=middle;" parent="yW2MhjZLvxJCwgjgdsqQ-4" vertex="1">
          <mxGeometry y="35" width="120" height="60" as="geometry" />
        </mxCell>
        <mxCell id="yW2MhjZLvxJCwgjgdsqQ-9" value="" style="group" parent="yW2MhjZLvxJCwgjgdsqQ-1" vertex="1" connectable="0">
          <mxGeometry x="60" y="40" width="110" height="100" as="geometry" />
        </mxCell>
        <mxCell id="yW2MhjZLvxJCwgjgdsqQ-10" value="&lt;p style=&quot;line-height: 120%;&quot;&gt;&lt;br&gt;&lt;/p&gt;" style="rounded=0;whiteSpace=wrap;html=1;absoluteArcSize=1;arcSize=14;strokeWidth=2;fillColor=none;" parent="yW2MhjZLvxJCwgjgdsqQ-9" vertex="1">
          <mxGeometry width="100" height="100" as="geometry" />
        </mxCell>
        <mxCell id="yW2MhjZLvxJCwgjgdsqQ-11" value="&lt;p style=&quot;color: rgb(0, 0, 0); font-family: Helvetica; font-size: 12px; font-style: normal; font-variant-ligatures: normal; font-variant-caps: normal; font-weight: 400; letter-spacing: normal; orphans: 2; text-indent: 0px; text-transform: none; widows: 2; word-spacing: 0px; -webkit-text-stroke-width: 0px; background-color: rgb(248, 249, 250); text-decoration-thickness: initial; text-decoration-style: initial; text-decoration-color: initial; line-height: 100%;&quot;&gt;นักศึกษาทุนของ&lt;span style=&quot;background-color: initial;&quot;&gt;มหาวิทยาลัยรังสิต&lt;/span&gt;&lt;br&gt;&lt;/p&gt;" style="text;whiteSpace=wrap;html=1;fontColor=#095C86;align=center;verticalAlign=middle;" parent="yW2MhjZLvxJCwgjgdsqQ-9" vertex="1">
          <mxGeometry x="5" y="20" width="90" height="60" as="geometry" />
        </mxCell>
        <mxCell id="yW2MhjZLvxJCwgjgdsqQ-12" value="" style="group" parent="yW2MhjZLvxJCwgjgdsqQ-1" vertex="1" connectable="0">
          <mxGeometry x="60" y="170" width="100" height="100" as="geometry" />
        </mxCell>
        <mxCell id="yW2MhjZLvxJCwgjgdsqQ-13" value="&lt;p style=&quot;line-height: 120%;&quot;&gt;&lt;br&gt;&lt;/p&gt;" style="rounded=0;whiteSpace=wrap;html=1;absoluteArcSize=1;arcSize=14;strokeWidth=2;fillColor=none;" parent="yW2MhjZLvxJCwgjgdsqQ-12" vertex="1">
          <mxGeometry width="100" height="100" as="geometry" />
        </mxCell>
        <mxCell id="yW2MhjZLvxJCwgjgdsqQ-14" value="&lt;p style=&quot;orphans: 2; text-indent: 0px; widows: 2; background-color: rgb(248, 249, 250); text-decoration-thickness: initial; text-decoration-style: initial; text-decoration-color: initial; line-height: 100%;&quot;&gt;&lt;font color=&quot;#000000&quot;&gt;อาจารย์หรือหน่วยงานที่จัดกิจกรรม&lt;/font&gt;&lt;br&gt;&lt;/p&gt;" style="text;whiteSpace=wrap;html=1;fontColor=#095C86;align=center;verticalAlign=middle;" parent="yW2MhjZLvxJCwgjgdsqQ-12" vertex="1">
          <mxGeometry x="5" y="20" width="90" height="60" as="geometry" />
        </mxCell>
        <mxCell id="yW2MhjZLvxJCwgjgdsqQ-15" value="" style="group" parent="yW2MhjZLvxJCwgjgdsqQ-1" vertex="1" connectable="0">
          <mxGeometry x="60" y="300" width="100" height="100" as="geometry" />
        </mxCell>
        <mxCell id="yW2MhjZLvxJCwgjgdsqQ-16" value="&lt;p style=&quot;line-height: 120%;&quot;&gt;&lt;br&gt;&lt;/p&gt;" style="rounded=0;whiteSpace=wrap;html=1;absoluteArcSize=1;arcSize=14;strokeWidth=2;fillColor=none;" parent="yW2MhjZLvxJCwgjgdsqQ-15" vertex="1">
          <mxGeometry width="100" height="100" as="geometry" />
        </mxCell>
        <mxCell id="yW2MhjZLvxJCwgjgdsqQ-17" value="&lt;p style=&quot;orphans: 2; text-indent: 0px; widows: 2; background-color: rgb(248, 249, 250); text-decoration-thickness: initial; text-decoration-style: initial; text-decoration-color: initial; line-height: 100%;&quot;&gt;&lt;font color=&quot;#000000&quot;&gt;ผู้ดูแลระบบ&lt;/font&gt;&lt;br&gt;&lt;/p&gt;" style="text;whiteSpace=wrap;html=1;fontColor=#095C86;align=center;verticalAlign=middle;" parent="yW2MhjZLvxJCwgjgdsqQ-15" vertex="1">
          <mxGeometry y="20" width="100" height="60" as="geometry" />
        </mxCell>
        <mxCell id="yW2MhjZLvxJCwgjgdsqQ-18" value="" style="group" parent="yW2MhjZLvxJCwgjgdsqQ-1" vertex="1" connectable="0">
          <mxGeometry x="840" y="430" width="100" height="100" as="geometry" />
        </mxCell>
        <mxCell id="yW2MhjZLvxJCwgjgdsqQ-19" value="&lt;p style=&quot;line-height: 120%;&quot;&gt;&lt;br&gt;&lt;/p&gt;" style="rounded=0;whiteSpace=wrap;html=1;absoluteArcSize=1;arcSize=14;strokeWidth=2;fillColor=none;" parent="yW2MhjZLvxJCwgjgdsqQ-18" vertex="1">
          <mxGeometry width="100" height="100" as="geometry" />
        </mxCell>
        <mxCell id="yW2MhjZLvxJCwgjgdsqQ-20" value="&lt;p style=&quot;orphans: 2; text-indent: 0px; widows: 2; background-color: rgb(248, 249, 250); text-decoration-thickness: initial; text-decoration-style: initial; text-decoration-color: initial; line-height: 100%;&quot;&gt;&lt;font color=&quot;#000000&quot;&gt;ศูนย์นักศึกษาทุน แห่งมหาวิทยาลัยรังสิต&lt;/font&gt;&lt;br&gt;&lt;/p&gt;" style="text;whiteSpace=wrap;html=1;fontColor=#095C86;align=center;verticalAlign=middle;" parent="yW2MhjZLvxJCwgjgdsqQ-18" vertex="1">
          <mxGeometry x="5" y="20" width="90" height="60" as="geometry" />
        </mxCell>
        <mxCell id="yW2MhjZLvxJCwgjgdsqQ-21" value="&lt;font color=&quot;#000000&quot;&gt;ข้อมูลผู้ใช้&lt;/font&gt;" style="html=1;verticalAlign=bottom;endArrow=none;rounded=0;strokeWidth=2;fontColor=#095C86;fillColor=none;entryX=0;entryY=0.583;entryDx=0;entryDy=0;entryPerimeter=0;startArrow=block;startFill=1;endFill=0;" parent="yW2MhjZLvxJCwgjgdsqQ-1" edge="1">
          <mxGeometry x="-0.0769" y="-10" width="80" relative="1" as="geometry">
            <mxPoint x="410" y="230" as="sourcePoint" />
            <mxPoint x="540" y="229.98000000000002" as="targetPoint" />
            <mxPoint as="offset" />
          </mxGeometry>
        </mxCell>
        <mxCell id="yW2MhjZLvxJCwgjgdsqQ-22" value="&lt;font color=&quot;#000000&quot;&gt;ชื่อผู้ใช้และรหัสผ่าน&lt;/font&gt;" style="html=1;verticalAlign=bottom;endArrow=block;rounded=0;strokeWidth=2;fontColor=#095C86;fillColor=none;" parent="yW2MhjZLvxJCwgjgdsqQ-1" edge="1">
          <mxGeometry x="-0.1844" y="-10" width="80" relative="1" as="geometry">
            <mxPoint x="160" y="89.52000000000001" as="sourcePoint" />
            <mxPoint x="350" y="170" as="targetPoint" />
            <mxPoint as="offset" />
            <Array as="points">
              <mxPoint x="350" y="90" />
            </Array>
          </mxGeometry>
        </mxCell>
        <mxCell id="yW2MhjZLvxJCwgjgdsqQ-23" value="&lt;font color=&quot;#000000&quot;&gt;ชื่อผู้ใช้&lt;br&gt;และรหัสผ่าน&lt;/font&gt;" style="html=1;verticalAlign=bottom;endArrow=block;rounded=0;strokeWidth=2;fontColor=#095C86;fillColor=none;entryX=0;entryY=0.25;entryDx=0;entryDy=0;entryPerimeter=0;" parent="yW2MhjZLvxJCwgjgdsqQ-1" target="yW2MhjZLvxJCwgjgdsqQ-8" edge="1">
          <mxGeometry x="-0.1844" y="-10" width="80" relative="1" as="geometry">
            <mxPoint x="160" y="220" as="sourcePoint" />
            <mxPoint x="360" y="180" as="targetPoint" />
            <mxPoint as="offset" />
            <Array as="points">
              <mxPoint x="240" y="220" />
            </Array>
          </mxGeometry>
        </mxCell>
        <mxCell id="yW2MhjZLvxJCwgjgdsqQ-24" value="&lt;font color=&quot;#000000&quot;&gt;ชื่อผู้ใช้และรหัสผ่าน&lt;/font&gt;" style="html=1;verticalAlign=bottom;endArrow=block;rounded=0;strokeWidth=2;fontColor=#095C86;fillColor=none;entryX=0.5;entryY=1;entryDx=0;entryDy=0;exitX=1;exitY=0.5;exitDx=0;exitDy=0;" parent="yW2MhjZLvxJCwgjgdsqQ-1" source="yW2MhjZLvxJCwgjgdsqQ-17" target="yW2MhjZLvxJCwgjgdsqQ-3" edge="1">
          <mxGeometry x="-0.1844" y="-10" width="80" relative="1" as="geometry">
            <mxPoint x="180.0000000000001" y="109.51999999999998" as="sourcePoint" />
            <mxPoint x="370" y="190" as="targetPoint" />
            <mxPoint as="offset" />
            <Array as="points">
              <mxPoint x="350" y="350" />
            </Array>
          </mxGeometry>
        </mxCell>
        <mxCell id="w2U7f6DHupVT3II3fa4w-0" value="" style="group" parent="yW2MhjZLvxJCwgjgdsqQ-1" vertex="1" connectable="0">
          <mxGeometry x="540" y="210" width="160" height="40" as="geometry" />
        </mxCell>
        <mxCell id="w2U7f6DHupVT3II3fa4w-1" value="" style="strokeWidth=2;html=1;shape=mxgraph.flowchart.annotation_1;align=left;pointerEvents=1;rounded=0;fillColor=none;" parent="w2U7f6DHupVT3II3fa4w-0" vertex="1">
          <mxGeometry width="160" height="40" as="geometry" />
        </mxCell>
        <mxCell id="w2U7f6DHupVT3II3fa4w-2" value="D1" style="rounded=0;whiteSpace=wrap;html=1;absoluteArcSize=1;arcSize=14;strokeWidth=2;fillColor=none;" parent="w2U7f6DHupVT3II3fa4w-0" vertex="1">
          <mxGeometry width="40" height="40" as="geometry" />
        </mxCell>
        <mxCell id="LdnUPirUzb_nFGU-eR1H-0" value="ข้อมูลผู้ใช้" style="text;html=1;resizable=0;autosize=1;align=center;verticalAlign=middle;points=[];fillColor=none;strokeColor=none;rounded=0;strokeWidth=2;fontColor=#000000;" parent="w2U7f6DHupVT3II3fa4w-0" vertex="1">
          <mxGeometry x="40" y="5" width="70" height="30" as="geometry" />
        </mxCell>
        <mxCell id="LdnUPirUzb_nFGU-eR1H-1" value="" style="group;verticalAlign=middle;" parent="yW2MhjZLvxJCwgjgdsqQ-1" vertex="1" connectable="0">
          <mxGeometry x="600" y="300" width="120" height="105" as="geometry" />
        </mxCell>
        <mxCell id="LdnUPirUzb_nFGU-eR1H-2" value="" style="rounded=1;whiteSpace=wrap;html=1;absoluteArcSize=1;arcSize=14;strokeWidth=2;fillColor=none;" parent="LdnUPirUzb_nFGU-eR1H-1" vertex="1">
          <mxGeometry width="120" height="100" as="geometry" />
        </mxCell>
        <mxCell id="LdnUPirUzb_nFGU-eR1H-3" value="" style="group" parent="LdnUPirUzb_nFGU-eR1H-1" vertex="1" connectable="0">
          <mxGeometry width="120" height="100" as="geometry" />
        </mxCell>
        <mxCell id="LdnUPirUzb_nFGU-eR1H-4" value="" style="shape=partialRectangle;whiteSpace=wrap;html=1;right=0;top=0;bottom=0;fillColor=none;routingCenterX=-0.5;rounded=1;rotation=90;strokeWidth=2;" parent="LdnUPirUzb_nFGU-eR1H-3" vertex="1">
          <mxGeometry x="25" y="5" width="70" height="120" as="geometry" />
        </mxCell>
        <mxCell id="LdnUPirUzb_nFGU-eR1H-5" value="" style="group" parent="LdnUPirUzb_nFGU-eR1H-3" vertex="1" connectable="0">
          <mxGeometry width="120" height="95" as="geometry" />
        </mxCell>
        <mxCell id="LdnUPirUzb_nFGU-eR1H-6" value="6.0" style="text;html=1;resizable=0;autosize=1;align=center;verticalAlign=middle;points=[];fillColor=none;rounded=0;strokeWidth=2;" parent="LdnUPirUzb_nFGU-eR1H-5" vertex="1">
          <mxGeometry x="40" width="40" height="30" as="geometry" />
        </mxCell>
        <mxCell id="LdnUPirUzb_nFGU-eR1H-7" value="&lt;p style=&quot;orphans: 2; text-indent: 0px; widows: 2; background-color: rgb(248, 249, 250); text-decoration-thickness: initial; text-decoration-style: initial; text-decoration-color: initial; line-height: 100%;&quot;&gt;&lt;font color=&quot;#000000&quot;&gt;ตรวจสอบสถานะนักศึกษาทุน&lt;/font&gt;&lt;br&gt;&lt;/p&gt;" style="text;whiteSpace=wrap;html=1;fontColor=#095C86;align=center;verticalAlign=middle;" parent="LdnUPirUzb_nFGU-eR1H-3" vertex="1">
          <mxGeometry x="5" y="35" width="110" height="60" as="geometry" />
        </mxCell>
        <mxCell id="LdnUPirUzb_nFGU-eR1H-8" value="&lt;font color=&quot;#000000&quot;&gt;ข้อมูลผู้ใช้&lt;/font&gt;" style="html=1;verticalAlign=bottom;endArrow=none;rounded=0;strokeWidth=2;fontColor=#095C86;fillColor=none;entryX=1;entryY=0.5;entryDx=0;entryDy=0;entryPerimeter=0;startArrow=block;startFill=1;endFill=0;" parent="yW2MhjZLvxJCwgjgdsqQ-1" target="w2U7f6DHupVT3II3fa4w-1" edge="1">
          <mxGeometry x="-0.0769" y="-10" width="80" relative="1" as="geometry">
            <mxPoint x="720" y="341" as="sourcePoint" />
            <mxPoint x="550" y="239.98000000000002" as="targetPoint" />
            <mxPoint as="offset" />
            <Array as="points">
              <mxPoint x="760" y="341" />
              <mxPoint x="760" y="230" />
            </Array>
          </mxGeometry>
        </mxCell>
        <mxCell id="R6NZN8Xvg8eKaqTgWGmB-0" value="&lt;font color=&quot;#000000&quot;&gt;รายงานข้อมูล&lt;br&gt;นักศึกษาทุน&lt;/font&gt;" style="html=1;verticalAlign=bottom;endArrow=block;rounded=0;strokeWidth=2;fontColor=#095C86;fillColor=none;entryX=0.5;entryY=0;entryDx=0;entryDy=0;exitX=1.004;exitY=0.574;exitDx=0;exitDy=0;exitPerimeter=0;" parent="yW2MhjZLvxJCwgjgdsqQ-1" source="LdnUPirUzb_nFGU-eR1H-2" target="yW2MhjZLvxJCwgjgdsqQ-19" edge="1">
          <mxGeometry x="-0.0769" y="-10" width="80" relative="1" as="geometry">
            <mxPoint x="730" y="357" as="sourcePoint" />
            <mxPoint x="840" y="370" as="targetPoint" />
            <mxPoint as="offset" />
            <Array as="points">
              <mxPoint x="890" y="357" />
            </Array>
          </mxGeometry>
        </mxCell>
        <mxCell id="R6NZN8Xvg8eKaqTgWGmB-1" value="" style="group;verticalAlign=middle;" parent="yW2MhjZLvxJCwgjgdsqQ-1" vertex="1" connectable="0">
          <mxGeometry x="80" y="480" width="120" height="105" as="geometry" />
        </mxCell>
        <mxCell id="R6NZN8Xvg8eKaqTgWGmB-2" value="" style="rounded=1;whiteSpace=wrap;html=1;absoluteArcSize=1;arcSize=14;strokeWidth=2;fillColor=none;" parent="R6NZN8Xvg8eKaqTgWGmB-1" vertex="1">
          <mxGeometry width="120" height="100" as="geometry" />
        </mxCell>
        <mxCell id="R6NZN8Xvg8eKaqTgWGmB-3" value="" style="group" parent="R6NZN8Xvg8eKaqTgWGmB-1" vertex="1" connectable="0">
          <mxGeometry width="120" height="100" as="geometry" />
        </mxCell>
        <mxCell id="R6NZN8Xvg8eKaqTgWGmB-4" value="" style="shape=partialRectangle;whiteSpace=wrap;html=1;right=0;top=0;bottom=0;fillColor=none;routingCenterX=-0.5;rounded=1;rotation=90;strokeWidth=2;" parent="R6NZN8Xvg8eKaqTgWGmB-3" vertex="1">
          <mxGeometry x="25" y="5" width="70" height="120" as="geometry" />
        </mxCell>
        <mxCell id="R6NZN8Xvg8eKaqTgWGmB-5" value="" style="group" parent="R6NZN8Xvg8eKaqTgWGmB-3" vertex="1" connectable="0">
          <mxGeometry width="120" height="90" as="geometry" />
        </mxCell>
        <mxCell id="R6NZN8Xvg8eKaqTgWGmB-6" value="2.0" style="text;html=1;resizable=0;autosize=1;align=center;verticalAlign=middle;points=[];fillColor=none;rounded=0;strokeWidth=2;" parent="R6NZN8Xvg8eKaqTgWGmB-5" vertex="1">
          <mxGeometry x="40" width="40" height="30" as="geometry" />
        </mxCell>
        <mxCell id="R6NZN8Xvg8eKaqTgWGmB-7" value="&lt;p style=&quot;orphans: 2; text-indent: 0px; widows: 2; background-color: rgb(248, 249, 250); text-decoration-thickness: initial; text-decoration-style: initial; text-decoration-color: initial; line-height: 100%;&quot;&gt;&lt;font color=&quot;#000000&quot;&gt;ลงทะเบียนกิจกรรม&lt;/font&gt;&lt;br&gt;&lt;/p&gt;" style="text;whiteSpace=wrap;html=1;fontColor=#095C86;align=center;verticalAlign=middle;" parent="R6NZN8Xvg8eKaqTgWGmB-3" vertex="1">
          <mxGeometry y="35" width="120" height="60" as="geometry" />
        </mxCell>
        <mxCell id="R6NZN8Xvg8eKaqTgWGmB-8" value="" style="group;verticalAlign=middle;" parent="yW2MhjZLvxJCwgjgdsqQ-1" vertex="1" connectable="0">
          <mxGeometry x="240" y="480" width="120" height="105" as="geometry" />
        </mxCell>
        <mxCell id="R6NZN8Xvg8eKaqTgWGmB-9" value="" style="rounded=1;whiteSpace=wrap;html=1;absoluteArcSize=1;arcSize=14;strokeWidth=2;fillColor=none;" parent="R6NZN8Xvg8eKaqTgWGmB-8" vertex="1">
          <mxGeometry width="120" height="100" as="geometry" />
        </mxCell>
        <mxCell id="R6NZN8Xvg8eKaqTgWGmB-10" value="" style="group" parent="R6NZN8Xvg8eKaqTgWGmB-8" vertex="1" connectable="0">
          <mxGeometry width="120" height="100" as="geometry" />
        </mxCell>
        <mxCell id="R6NZN8Xvg8eKaqTgWGmB-11" value="" style="shape=partialRectangle;whiteSpace=wrap;html=1;right=0;top=0;bottom=0;fillColor=none;routingCenterX=-0.5;rounded=1;rotation=90;strokeWidth=2;" parent="R6NZN8Xvg8eKaqTgWGmB-10" vertex="1">
          <mxGeometry x="25" y="5" width="70" height="120" as="geometry" />
        </mxCell>
        <mxCell id="R6NZN8Xvg8eKaqTgWGmB-12" value="" style="group" parent="R6NZN8Xvg8eKaqTgWGmB-10" vertex="1" connectable="0">
          <mxGeometry width="120" height="90" as="geometry" />
        </mxCell>
        <mxCell id="R6NZN8Xvg8eKaqTgWGmB-13" value="3.0" style="text;html=1;resizable=0;autosize=1;align=center;verticalAlign=middle;points=[];fillColor=none;rounded=0;strokeWidth=2;" parent="R6NZN8Xvg8eKaqTgWGmB-12" vertex="1">
          <mxGeometry x="40" width="40" height="30" as="geometry" />
        </mxCell>
        <mxCell id="R6NZN8Xvg8eKaqTgWGmB-14" value="&lt;p style=&quot;orphans: 2; text-indent: 0px; widows: 2; background-color: rgb(248, 249, 250); text-decoration-thickness: initial; text-decoration-style: initial; text-decoration-color: initial; line-height: 100%;&quot;&gt;&lt;font color=&quot;#000000&quot;&gt;เช็คประวัติกิจกรรม&lt;/font&gt;&lt;br&gt;&lt;/p&gt;" style="text;whiteSpace=wrap;html=1;fontColor=#095C86;align=center;verticalAlign=middle;" parent="R6NZN8Xvg8eKaqTgWGmB-10" vertex="1">
          <mxGeometry y="35" width="120" height="60" as="geometry" />
        </mxCell>
        <mxCell id="R6NZN8Xvg8eKaqTgWGmB-15" value="" style="group;verticalAlign=middle;" parent="yW2MhjZLvxJCwgjgdsqQ-1" vertex="1" connectable="0">
          <mxGeometry x="400" y="480" width="120" height="105" as="geometry" />
        </mxCell>
        <mxCell id="R6NZN8Xvg8eKaqTgWGmB-16" value="" style="rounded=1;whiteSpace=wrap;html=1;absoluteArcSize=1;arcSize=14;strokeWidth=2;fillColor=none;" parent="R6NZN8Xvg8eKaqTgWGmB-15" vertex="1">
          <mxGeometry width="120" height="100" as="geometry" />
        </mxCell>
        <mxCell id="R6NZN8Xvg8eKaqTgWGmB-17" value="" style="group" parent="R6NZN8Xvg8eKaqTgWGmB-15" vertex="1" connectable="0">
          <mxGeometry width="120" height="100" as="geometry" />
        </mxCell>
        <mxCell id="R6NZN8Xvg8eKaqTgWGmB-18" value="" style="shape=partialRectangle;whiteSpace=wrap;html=1;right=0;top=0;bottom=0;fillColor=none;routingCenterX=-0.5;rounded=1;rotation=90;strokeWidth=2;" parent="R6NZN8Xvg8eKaqTgWGmB-17" vertex="1">
          <mxGeometry x="25" y="5" width="70" height="120" as="geometry" />
        </mxCell>
        <mxCell id="R6NZN8Xvg8eKaqTgWGmB-19" value="" style="group" parent="R6NZN8Xvg8eKaqTgWGmB-17" vertex="1" connectable="0">
          <mxGeometry width="120" height="90" as="geometry" />
        </mxCell>
        <mxCell id="R6NZN8Xvg8eKaqTgWGmB-20" value="4.0" style="text;html=1;resizable=0;autosize=1;align=center;verticalAlign=middle;points=[];fillColor=none;rounded=0;strokeWidth=2;" parent="R6NZN8Xvg8eKaqTgWGmB-19" vertex="1">
          <mxGeometry x="40" width="40" height="30" as="geometry" />
        </mxCell>
        <mxCell id="R6NZN8Xvg8eKaqTgWGmB-21" value="&lt;p style=&quot;orphans: 2; text-indent: 0px; widows: 2; background-color: rgb(248, 249, 250); text-decoration-thickness: initial; text-decoration-style: initial; text-decoration-color: initial; line-height: 100%;&quot;&gt;&lt;font color=&quot;#000000&quot;&gt;เช็คชั่วโมงทุน&lt;/font&gt;&lt;br&gt;&lt;/p&gt;" style="text;whiteSpace=wrap;html=1;fontColor=#095C86;align=center;verticalAlign=middle;" parent="R6NZN8Xvg8eKaqTgWGmB-17" vertex="1">
          <mxGeometry y="35" width="120" height="60" as="geometry" />
        </mxCell>
        <mxCell id="R6NZN8Xvg8eKaqTgWGmB-22" value="" style="group;verticalAlign=middle;" parent="yW2MhjZLvxJCwgjgdsqQ-1" vertex="1" connectable="0">
          <mxGeometry x="560" y="480" width="120" height="105" as="geometry" />
        </mxCell>
        <mxCell id="R6NZN8Xvg8eKaqTgWGmB-23" value="" style="rounded=1;whiteSpace=wrap;html=1;absoluteArcSize=1;arcSize=14;strokeWidth=2;fillColor=none;" parent="R6NZN8Xvg8eKaqTgWGmB-22" vertex="1">
          <mxGeometry width="120" height="100" as="geometry" />
        </mxCell>
        <mxCell id="R6NZN8Xvg8eKaqTgWGmB-24" value="" style="group" parent="R6NZN8Xvg8eKaqTgWGmB-22" vertex="1" connectable="0">
          <mxGeometry width="120" height="100" as="geometry" />
        </mxCell>
        <mxCell id="R6NZN8Xvg8eKaqTgWGmB-25" value="" style="shape=partialRectangle;whiteSpace=wrap;html=1;right=0;top=0;bottom=0;fillColor=none;routingCenterX=-0.5;rounded=1;rotation=90;strokeWidth=2;" parent="R6NZN8Xvg8eKaqTgWGmB-24" vertex="1">
          <mxGeometry x="25" y="5" width="70" height="120" as="geometry" />
        </mxCell>
        <mxCell id="R6NZN8Xvg8eKaqTgWGmB-28" value="&lt;p style=&quot;orphans: 2; text-indent: 0px; widows: 2; background-color: rgb(248, 249, 250); text-decoration-thickness: initial; text-decoration-style: initial; text-decoration-color: initial; line-height: 100%;&quot;&gt;&lt;font color=&quot;#000000&quot;&gt;สร้าง/แก้ไข/ยกเลิก กิจกรรม&lt;/font&gt;&lt;br&gt;&lt;/p&gt;" style="text;whiteSpace=wrap;html=1;fontColor=#095C86;align=center;verticalAlign=middle;" parent="R6NZN8Xvg8eKaqTgWGmB-24" vertex="1">
          <mxGeometry x="10" y="35" width="100" height="60" as="geometry" />
        </mxCell>
        <mxCell id="R6NZN8Xvg8eKaqTgWGmB-26" value="" style="group" parent="R6NZN8Xvg8eKaqTgWGmB-24" vertex="1" connectable="0">
          <mxGeometry width="120" height="90" as="geometry" />
        </mxCell>
        <mxCell id="R6NZN8Xvg8eKaqTgWGmB-27" value="5.0" style="text;html=1;resizable=0;autosize=1;align=center;verticalAlign=middle;points=[];fillColor=none;rounded=0;strokeWidth=2;" parent="R6NZN8Xvg8eKaqTgWGmB-26" vertex="1">
          <mxGeometry x="40" width="40" height="30" as="geometry" />
        </mxCell>
        <mxCell id="R6NZN8Xvg8eKaqTgWGmB-29" value="" style="group" parent="yW2MhjZLvxJCwgjgdsqQ-1" vertex="1" connectable="0">
          <mxGeometry x="900" y="640" width="160" height="40" as="geometry" />
        </mxCell>
        <mxCell id="R6NZN8Xvg8eKaqTgWGmB-30" value="" style="strokeWidth=2;html=1;shape=mxgraph.flowchart.annotation_1;align=left;pointerEvents=1;rounded=0;fillColor=none;" parent="R6NZN8Xvg8eKaqTgWGmB-29" vertex="1">
          <mxGeometry width="160" height="40" as="geometry" />
        </mxCell>
        <mxCell id="R6NZN8Xvg8eKaqTgWGmB-33" value="" style="group" parent="R6NZN8Xvg8eKaqTgWGmB-29" vertex="1" connectable="0">
          <mxGeometry width="140" height="40" as="geometry" />
        </mxCell>
        <mxCell id="R6NZN8Xvg8eKaqTgWGmB-31" value="D2&lt;br&gt;(1/2)" style="rounded=0;whiteSpace=wrap;html=1;absoluteArcSize=1;arcSize=14;strokeWidth=2;fillColor=none;" parent="R6NZN8Xvg8eKaqTgWGmB-33" vertex="1">
          <mxGeometry width="40" height="40" as="geometry" />
        </mxCell>
        <mxCell id="R6NZN8Xvg8eKaqTgWGmB-32" value="ข้อมูลชั่วโมงทุน" style="text;html=1;resizable=0;autosize=1;align=center;verticalAlign=middle;points=[];fillColor=none;strokeColor=none;rounded=0;strokeWidth=2;fontColor=#000000;" parent="R6NZN8Xvg8eKaqTgWGmB-33" vertex="1">
          <mxGeometry x="40" y="5" width="100" height="30" as="geometry" />
        </mxCell>
        <mxCell id="R6NZN8Xvg8eKaqTgWGmB-34" value="" style="group" parent="yW2MhjZLvxJCwgjgdsqQ-1" vertex="1" connectable="0">
          <mxGeometry x="900" y="720" width="160" height="40" as="geometry" />
        </mxCell>
        <mxCell id="R6NZN8Xvg8eKaqTgWGmB-35" value="" style="strokeWidth=2;html=1;shape=mxgraph.flowchart.annotation_1;align=left;pointerEvents=1;rounded=0;fillColor=none;" parent="R6NZN8Xvg8eKaqTgWGmB-34" vertex="1">
          <mxGeometry width="160" height="40" as="geometry" />
        </mxCell>
        <mxCell id="R6NZN8Xvg8eKaqTgWGmB-36" value="" style="group" parent="R6NZN8Xvg8eKaqTgWGmB-34" vertex="1" connectable="0">
          <mxGeometry width="150" height="40" as="geometry" />
        </mxCell>
        <mxCell id="R6NZN8Xvg8eKaqTgWGmB-37" value="D3&lt;br&gt;(1/2)" style="rounded=0;whiteSpace=wrap;html=1;absoluteArcSize=1;arcSize=14;strokeWidth=2;fillColor=none;" parent="R6NZN8Xvg8eKaqTgWGmB-36" vertex="1">
          <mxGeometry width="40" height="40" as="geometry" />
        </mxCell>
        <mxCell id="R6NZN8Xvg8eKaqTgWGmB-38" value="ข้อมูลประวัติกิจกรรม" style="text;html=1;resizable=0;autosize=1;align=center;verticalAlign=middle;points=[];fillColor=none;strokeColor=none;rounded=0;strokeWidth=2;fontColor=#000000;" parent="R6NZN8Xvg8eKaqTgWGmB-36" vertex="1">
          <mxGeometry x="40" y="5" width="120" height="30" as="geometry" />
        </mxCell>
        <mxCell id="R6NZN8Xvg8eKaqTgWGmB-39" value="&lt;font color=&quot;#000000&quot;&gt;ข้อมูลชั่วโมงทุน&lt;br&gt;ของนักศึกษาทุน&lt;/font&gt;" style="html=1;verticalAlign=bottom;endArrow=block;rounded=0;strokeWidth=2;fontColor=#095C86;fillColor=none;exitX=0;exitY=0.5;exitDx=0;exitDy=0;" parent="yW2MhjZLvxJCwgjgdsqQ-1" source="R6NZN8Xvg8eKaqTgWGmB-31" edge="1">
          <mxGeometry x="-0.4348" width="80" relative="1" as="geometry">
            <mxPoint x="730" y="380.02" as="sourcePoint" />
            <mxPoint x="720" y="370" as="targetPoint" />
            <mxPoint y="-1" as="offset" />
            <Array as="points">
              <mxPoint x="820" y="660" />
              <mxPoint x="820" y="371" />
            </Array>
          </mxGeometry>
        </mxCell>
        <mxCell id="R6NZN8Xvg8eKaqTgWGmB-41" value="&lt;font color=&quot;#000000&quot;&gt;ข้อมูลประวัติกิจกรรม&lt;br&gt;ของนักศึกษาทุน&lt;/font&gt;" style="html=1;verticalAlign=bottom;endArrow=block;rounded=0;strokeWidth=2;fontColor=#095C86;fillColor=none;exitX=0;exitY=0.5;exitDx=0;exitDy=0;" parent="yW2MhjZLvxJCwgjgdsqQ-1" source="R6NZN8Xvg8eKaqTgWGmB-37" edge="1">
          <mxGeometry x="-0.3611" width="80" relative="1" as="geometry">
            <mxPoint x="910" y="670" as="sourcePoint" />
            <mxPoint x="720" y="387" as="targetPoint" />
            <mxPoint as="offset" />
            <Array as="points">
              <mxPoint x="760" y="740" />
              <mxPoint x="760" y="387" />
            </Array>
          </mxGeometry>
        </mxCell>
        <mxCell id="R6NZN8Xvg8eKaqTgWGmB-43" value="" style="html=1;verticalAlign=bottom;endArrow=block;rounded=0;strokeWidth=2;fontColor=#000000;fillColor=none;startArrow=block;startFill=1;entryX=1;entryY=0.5;entryDx=0;entryDy=0;exitX=0.998;exitY=0.655;exitDx=0;exitDy=0;exitPerimeter=0;" parent="yW2MhjZLvxJCwgjgdsqQ-1" source="R6NZN8Xvg8eKaqTgWGmB-23" target="LdnUPirUzb_nFGU-eR1H-4" edge="1">
          <mxGeometry width="80" relative="1" as="geometry">
            <mxPoint x="610" y="450" as="sourcePoint" />
            <mxPoint x="680" y="450" as="targetPoint" />
            <Array as="points">
              <mxPoint x="710" y="546" />
              <mxPoint x="710" y="440" />
              <mxPoint x="660" y="440" />
            </Array>
          </mxGeometry>
        </mxCell>
        <mxCell id="R6NZN8Xvg8eKaqTgWGmB-44" value="" style="html=1;verticalAlign=bottom;endArrow=block;rounded=0;strokeWidth=2;fontColor=#000000;fillColor=none;startArrow=block;startFill=1;exitX=1;exitY=0.5;exitDx=0;exitDy=0;" parent="yW2MhjZLvxJCwgjgdsqQ-1" source="R6NZN8Xvg8eKaqTgWGmB-21" edge="1">
          <mxGeometry width="80" relative="1" as="geometry">
            <mxPoint x="689.76" y="555.5" as="sourcePoint" />
            <mxPoint x="560" y="545" as="targetPoint" />
            <Array as="points" />
          </mxGeometry>
        </mxCell>
        <mxCell id="R6NZN8Xvg8eKaqTgWGmB-45" value="" style="html=1;verticalAlign=bottom;endArrow=block;rounded=0;strokeWidth=2;fontColor=#000000;fillColor=none;startArrow=block;startFill=1;exitX=1;exitY=0.5;exitDx=0;exitDy=0;entryX=0;entryY=0.5;entryDx=0;entryDy=0;" parent="yW2MhjZLvxJCwgjgdsqQ-1" source="R6NZN8Xvg8eKaqTgWGmB-14" target="R6NZN8Xvg8eKaqTgWGmB-21" edge="1">
          <mxGeometry width="80" relative="1" as="geometry">
            <mxPoint x="359.9999999999999" y="550" as="sourcePoint" />
            <mxPoint x="400.0000000000001" y="550" as="targetPoint" />
            <Array as="points" />
          </mxGeometry>
        </mxCell>
        <mxCell id="R6NZN8Xvg8eKaqTgWGmB-46" value="" style="html=1;verticalAlign=bottom;endArrow=block;rounded=0;strokeWidth=2;fontColor=#000000;fillColor=none;startArrow=block;startFill=1;exitX=1;exitY=0.5;exitDx=0;exitDy=0;entryX=0;entryY=0.5;entryDx=0;entryDy=0;" parent="yW2MhjZLvxJCwgjgdsqQ-1" source="R6NZN8Xvg8eKaqTgWGmB-7" target="R6NZN8Xvg8eKaqTgWGmB-14" edge="1">
          <mxGeometry width="80" relative="1" as="geometry">
            <mxPoint x="370" y="555" as="sourcePoint" />
            <mxPoint x="410" y="555" as="targetPoint" />
            <Array as="points" />
          </mxGeometry>
        </mxCell>
        <mxCell id="UD0mcJ6IPDcy_86nNl23-0" value="" style="group" parent="yW2MhjZLvxJCwgjgdsqQ-1" vertex="1" connectable="0">
          <mxGeometry x="150" y="670" width="160" height="40" as="geometry" />
        </mxCell>
        <mxCell id="UD0mcJ6IPDcy_86nNl23-1" value="" style="strokeWidth=2;html=1;shape=mxgraph.flowchart.annotation_1;align=left;pointerEvents=1;rounded=0;fillColor=none;" parent="UD0mcJ6IPDcy_86nNl23-0" vertex="1">
          <mxGeometry width="160" height="40" as="geometry" />
        </mxCell>
        <mxCell id="UD0mcJ6IPDcy_86nNl23-2" value="" style="group" parent="UD0mcJ6IPDcy_86nNl23-0" vertex="1" connectable="0">
          <mxGeometry width="150" height="40" as="geometry" />
        </mxCell>
        <mxCell id="UD0mcJ6IPDcy_86nNl23-3" value="D3&lt;br&gt;(2/2)" style="rounded=0;whiteSpace=wrap;html=1;absoluteArcSize=1;arcSize=14;strokeWidth=2;fillColor=none;" parent="UD0mcJ6IPDcy_86nNl23-2" vertex="1">
          <mxGeometry width="40" height="40" as="geometry" />
        </mxCell>
        <mxCell id="UD0mcJ6IPDcy_86nNl23-4" value="ข้อมูลประวัติกิจกรรม" style="text;html=1;resizable=0;autosize=1;align=center;verticalAlign=middle;points=[];fillColor=none;strokeColor=none;rounded=0;strokeWidth=2;fontColor=#000000;" parent="UD0mcJ6IPDcy_86nNl23-2" vertex="1">
          <mxGeometry x="40" y="5" width="120" height="30" as="geometry" />
        </mxCell>
        <mxCell id="UD0mcJ6IPDcy_86nNl23-5" value="&lt;font color=&quot;#000000&quot;&gt;ลงทะเบียน&lt;br&gt;กิจกรรม&lt;/font&gt;" style="html=1;verticalAlign=bottom;endArrow=block;rounded=0;strokeWidth=2;fontColor=#095C86;fillColor=none;entryX=0;entryY=0.5;entryDx=0;entryDy=0;exitX=1;exitY=0.75;exitDx=0;exitDy=0;" parent="yW2MhjZLvxJCwgjgdsqQ-1" source="R6NZN8Xvg8eKaqTgWGmB-4" target="UD0mcJ6IPDcy_86nNl23-3" edge="1">
          <mxGeometry x="-0.1636" width="80" relative="1" as="geometry">
            <mxPoint x="170" y="360" as="sourcePoint" />
            <mxPoint x="360" y="280" as="targetPoint" />
            <mxPoint as="offset" />
            <Array as="points">
              <mxPoint x="110" y="610" />
              <mxPoint x="110" y="690" />
            </Array>
          </mxGeometry>
        </mxCell>
        <mxCell id="UD0mcJ6IPDcy_86nNl23-6" value="&lt;font color=&quot;#000000&quot;&gt;ลงทะเบียน&lt;br&gt;กิจกรรม&lt;/font&gt;" style="html=1;verticalAlign=bottom;endArrow=block;rounded=0;strokeWidth=2;fontColor=#095C86;fillColor=none;exitX=1.018;exitY=0.588;exitDx=0;exitDy=0;exitPerimeter=0;entryX=1.024;entryY=0.106;entryDx=0;entryDy=0;entryPerimeter=0;" parent="yW2MhjZLvxJCwgjgdsqQ-1" source="UD0mcJ6IPDcy_86nNl23-4" target="R6NZN8Xvg8eKaqTgWGmB-11" edge="1">
          <mxGeometry x="0.0652" width="80" relative="1" as="geometry">
            <mxPoint x="120" y="590" as="sourcePoint" />
            <mxPoint x="350" y="590" as="targetPoint" />
            <mxPoint as="offset" />
            <Array as="points">
              <mxPoint x="347" y="693" />
            </Array>
          </mxGeometry>
        </mxCell>
        <mxCell id="UD0mcJ6IPDcy_86nNl23-12" value="" style="group" parent="yW2MhjZLvxJCwgjgdsqQ-1" vertex="1" connectable="0">
          <mxGeometry x="150" y="790" width="160" height="40" as="geometry" />
        </mxCell>
        <mxCell id="UD0mcJ6IPDcy_86nNl23-13" value="" style="strokeWidth=2;html=1;shape=mxgraph.flowchart.annotation_1;align=left;pointerEvents=1;rounded=0;fillColor=none;" parent="UD0mcJ6IPDcy_86nNl23-12" vertex="1">
          <mxGeometry width="160" height="40" as="geometry" />
        </mxCell>
        <mxCell id="UD0mcJ6IPDcy_86nNl23-14" value="D4" style="rounded=0;whiteSpace=wrap;html=1;absoluteArcSize=1;arcSize=14;strokeWidth=2;fillColor=none;" parent="UD0mcJ6IPDcy_86nNl23-12" vertex="1">
          <mxGeometry width="40" height="40" as="geometry" />
        </mxCell>
        <mxCell id="UD0mcJ6IPDcy_86nNl23-15" value="ข้อมูลกิจกรรมทั้งหมด" style="text;html=1;resizable=0;autosize=1;align=center;verticalAlign=middle;points=[];fillColor=none;strokeColor=none;rounded=0;strokeWidth=2;fontColor=#000000;" parent="UD0mcJ6IPDcy_86nNl23-12" vertex="1">
          <mxGeometry x="40" y="5" width="130" height="30" as="geometry" />
        </mxCell>
        <mxCell id="UD0mcJ6IPDcy_86nNl23-16" value="&lt;font color=&quot;#000000&quot;&gt;ข้อมูล&lt;br&gt;กิจกรรม&lt;/font&gt;" style="html=1;verticalAlign=bottom;endArrow=block;rounded=0;strokeWidth=2;fontColor=#095C86;fillColor=none;exitX=0;exitY=0.5;exitDx=0;exitDy=0;entryX=0;entryY=0.5;entryDx=0;entryDy=0;" parent="yW2MhjZLvxJCwgjgdsqQ-1" source="UD0mcJ6IPDcy_86nNl23-14" target="R6NZN8Xvg8eKaqTgWGmB-7" edge="1">
          <mxGeometry x="-0.2405" width="80" relative="1" as="geometry">
            <mxPoint x="322.1600000000001" y="702.6400000000001" as="sourcePoint" />
            <mxPoint x="357.28" y="591.6800000000001" as="targetPoint" />
            <mxPoint as="offset" />
            <Array as="points">
              <mxPoint x="50" y="810" />
              <mxPoint x="50" y="545" />
            </Array>
          </mxGeometry>
        </mxCell>
        <mxCell id="UD0mcJ6IPDcy_86nNl23-17" value="&lt;font color=&quot;#000000&quot;&gt;ข้อมูล&lt;br&gt;กิจกรรม&lt;/font&gt;" style="html=1;verticalAlign=bottom;endArrow=block;rounded=0;strokeWidth=2;fontColor=#095C86;fillColor=none;entryX=0.5;entryY=1;entryDx=0;entryDy=0;" parent="yW2MhjZLvxJCwgjgdsqQ-1" target="R6NZN8Xvg8eKaqTgWGmB-23" edge="1">
          <mxGeometry x="0.6599" width="80" relative="1" as="geometry">
            <mxPoint x="310" y="811" as="sourcePoint" />
            <mxPoint x="90" y="555" as="targetPoint" />
            <mxPoint as="offset" />
            <Array as="points">
              <mxPoint x="620" y="811" />
            </Array>
          </mxGeometry>
        </mxCell>
        <mxCell id="ueZ2ky2FOrRwYsvYB8tE-0" value="" style="group" parent="yW2MhjZLvxJCwgjgdsqQ-1" vertex="1" connectable="0">
          <mxGeometry x="380" y="720" width="160" height="40" as="geometry" />
        </mxCell>
        <mxCell id="ueZ2ky2FOrRwYsvYB8tE-1" value="" style="strokeWidth=2;html=1;shape=mxgraph.flowchart.annotation_1;align=left;pointerEvents=1;rounded=0;fillColor=none;" parent="ueZ2ky2FOrRwYsvYB8tE-0" vertex="1">
          <mxGeometry width="160" height="40" as="geometry" />
        </mxCell>
        <mxCell id="ueZ2ky2FOrRwYsvYB8tE-2" value="" style="group" parent="ueZ2ky2FOrRwYsvYB8tE-0" vertex="1" connectable="0">
          <mxGeometry width="140" height="40" as="geometry" />
        </mxCell>
        <mxCell id="ueZ2ky2FOrRwYsvYB8tE-3" value="D2&lt;br&gt;(2/2)" style="rounded=0;whiteSpace=wrap;html=1;absoluteArcSize=1;arcSize=14;strokeWidth=2;fillColor=none;" parent="ueZ2ky2FOrRwYsvYB8tE-2" vertex="1">
          <mxGeometry width="40" height="40" as="geometry" />
        </mxCell>
        <mxCell id="ueZ2ky2FOrRwYsvYB8tE-4" value="ข้อมูลชั่วโมงทุน" style="text;html=1;resizable=0;autosize=1;align=center;verticalAlign=middle;points=[];fillColor=none;strokeColor=none;rounded=0;strokeWidth=2;fontColor=#000000;" parent="ueZ2ky2FOrRwYsvYB8tE-2" vertex="1">
          <mxGeometry x="40" y="5" width="100" height="30" as="geometry" />
        </mxCell>
        <mxCell id="ueZ2ky2FOrRwYsvYB8tE-5" value="&lt;font color=&quot;#000000&quot;&gt;ข้อมูล&lt;br&gt;ชั่วโมงทุน&lt;br&gt;&lt;/font&gt;" style="html=1;verticalAlign=bottom;endArrow=block;rounded=0;strokeWidth=2;fontColor=#095C86;fillColor=none;exitX=0.5;exitY=0;exitDx=0;exitDy=0;exitPerimeter=0;entryX=1;entryY=0.5;entryDx=0;entryDy=0;" parent="yW2MhjZLvxJCwgjgdsqQ-1" source="ueZ2ky2FOrRwYsvYB8tE-1" target="R6NZN8Xvg8eKaqTgWGmB-18" edge="1">
          <mxGeometry x="-0.1429" width="80" relative="1" as="geometry">
            <mxPoint x="322.1600000000001" y="702.6399999999999" as="sourcePoint" />
            <mxPoint x="357.28" y="591.6799999999998" as="targetPoint" />
            <mxPoint as="offset" />
            <Array as="points" />
          </mxGeometry>
        </mxCell>
      </root>
    </mxGraphModel>
  </diagram>
  <diagram id="UfC_-JB79axehsIdhDkS" name="Use Case Diagram">
    <mxGraphModel dx="1282" dy="569" grid="1" gridSize="10" guides="1" tooltips="1" connect="1" arrows="1" fold="1" page="1" pageScale="1" pageWidth="990" pageHeight="790" math="0" shadow="0">
      <root>
        <mxCell id="0" />
        <mxCell id="1" parent="0" />
        <mxCell id="3_sBtNSPQGxRUfOqjnBE-9" value="ผู้ดูแลระบบ" style="shape=umlActor;verticalLabelPosition=bottom;verticalAlign=top;html=1;rounded=1;strokeWidth=2;fillColor=none;" parent="1" vertex="1">
          <mxGeometry x="900" y="380" width="30" height="60" as="geometry" />
        </mxCell>
        <mxCell id="3_sBtNSPQGxRUfOqjnBE-10" value="" style="verticalLabelPosition=bottom;verticalAlign=top;html=1;shape=mxgraph.basic.rect;fillColor2=none;strokeWidth=2;size=20;indent=5;rounded=1;strokeColor=#0e8088;fillColor=#b0e3e6;sketch=0;shadow=0;" parent="1" vertex="1">
          <mxGeometry x="310" y="40" width="500" height="700" as="geometry" />
        </mxCell>
        <mxCell id="3_sBtNSPQGxRUfOqjnBE-11" value="เข้าสู่ระบบ" style="strokeWidth=2;html=1;shape=mxgraph.flowchart.start_1;whiteSpace=wrap;rounded=1;shadow=0;sketch=0;strokeColor=#0E8088;" parent="1" vertex="1">
          <mxGeometry x="445" y="70" width="100" height="60" as="geometry" />
        </mxCell>
        <mxCell id="3_sBtNSPQGxRUfOqjnBE-12" value="เช็คชั่วโมงทุน" style="strokeWidth=2;html=1;shape=mxgraph.flowchart.start_1;whiteSpace=wrap;rounded=1;shadow=0;sketch=0;strokeColor=#0E8088;" parent="1" vertex="1">
          <mxGeometry x="415" y="160" width="100" height="60" as="geometry" />
        </mxCell>
        <mxCell id="3_sBtNSPQGxRUfOqjnBE-13" value="เช็คประวัติกิจกรรม" style="strokeWidth=2;html=1;shape=mxgraph.flowchart.start_1;whiteSpace=wrap;rounded=1;shadow=0;sketch=0;strokeColor=#0E8088;" parent="1" vertex="1">
          <mxGeometry x="415" y="250" width="100" height="60" as="geometry" />
        </mxCell>
        <mxCell id="3_sBtNSPQGxRUfOqjnBE-14" value="ลงทะเบียนกิจกรรม" style="strokeWidth=2;html=1;shape=mxgraph.flowchart.start_1;whiteSpace=wrap;rounded=1;shadow=0;sketch=0;strokeColor=#0E8088;" parent="1" vertex="1">
          <mxGeometry x="415" y="340" width="100" height="60" as="geometry" />
        </mxCell>
        <mxCell id="3_sBtNSPQGxRUfOqjnBE-15" value="ยืนยันเข้ากิจกรรม" style="strokeWidth=2;html=1;shape=mxgraph.flowchart.start_1;whiteSpace=wrap;rounded=1;shadow=0;sketch=0;strokeColor=#0E8088;" parent="1" vertex="1">
          <mxGeometry x="415" y="450" width="100" height="60" as="geometry" />
        </mxCell>
        <mxCell id="3_sBtNSPQGxRUfOqjnBE-16" value="สร้าง/แก้ไข/ยกเลิกกิจกรรม" style="strokeWidth=2;html=1;shape=mxgraph.flowchart.start_1;whiteSpace=wrap;rounded=1;shadow=0;sketch=0;strokeColor=#0E8088;" parent="1" vertex="1">
          <mxGeometry x="415" y="540" width="110" height="60" as="geometry" />
        </mxCell>
        <mxCell id="3_sBtNSPQGxRUfOqjnBE-17" value="ยืนยันการเข้ากิจกรรม" style="strokeWidth=2;html=1;shape=mxgraph.flowchart.start_1;whiteSpace=wrap;rounded=1;shadow=0;sketch=0;strokeColor=#0E8088;" parent="1" vertex="1">
          <mxGeometry x="420" y="660" width="100" height="60" as="geometry" />
        </mxCell>
        <mxCell id="3_sBtNSPQGxRUfOqjnBE-18" value="ตรวจสอบสถานะนักศึกษาทุน" style="strokeWidth=2;html=1;shape=mxgraph.flowchart.start_1;whiteSpace=wrap;rounded=1;shadow=0;sketch=0;strokeColor=#0E8088;" parent="1" vertex="1">
          <mxGeometry x="610" y="280" width="100" height="60" as="geometry" />
        </mxCell>
        <mxCell id="3_sBtNSPQGxRUfOqjnBE-19" value="จัดการระบบ" style="strokeWidth=2;html=1;shape=mxgraph.flowchart.start_1;whiteSpace=wrap;rounded=1;shadow=0;sketch=0;strokeColor=#0E8088;" parent="1" vertex="1">
          <mxGeometry x="610" y="380" width="100" height="60" as="geometry" />
        </mxCell>
        <mxCell id="3_sBtNSPQGxRUfOqjnBE-20" value="&lt;p&gt;ดูรายชื่อ/จำนวน&lt;/p&gt;&lt;p&gt;นักศึกษาที่เข้าร่วม&lt;/p&gt;" style="strokeWidth=2;html=1;shape=mxgraph.flowchart.start_1;whiteSpace=wrap;rounded=1;shadow=0;sketch=0;strokeColor=#0E8088;" parent="1" vertex="1">
          <mxGeometry x="610" y="580" width="140" height="60" as="geometry" />
        </mxCell>
        <mxCell id="3_sBtNSPQGxRUfOqjnBE-25" value="" style="html=1;verticalAlign=bottom;endArrow=block;rounded=0;strokeColor=#0E8088;strokeWidth=2;fontColor=#000000;fillColor=#F694C1;entryX=0;entryY=0.5;entryDx=0;entryDy=0;entryPerimeter=0;" parent="1" target="3_sBtNSPQGxRUfOqjnBE-11" edge="1">
          <mxGeometry width="80" relative="1" as="geometry">
            <mxPoint x="180" y="220" as="sourcePoint" />
            <mxPoint x="510" y="410" as="targetPoint" />
          </mxGeometry>
        </mxCell>
        <mxCell id="3_sBtNSPQGxRUfOqjnBE-26" value="" style="html=1;verticalAlign=bottom;endArrow=block;rounded=0;strokeColor=#0E8088;strokeWidth=2;fontColor=#000000;fillColor=#F694C1;entryX=0;entryY=0.5;entryDx=0;entryDy=0;entryPerimeter=0;" parent="1" target="3_sBtNSPQGxRUfOqjnBE-12" edge="1">
          <mxGeometry width="80" relative="1" as="geometry">
            <mxPoint x="180" y="220" as="sourcePoint" />
            <mxPoint x="455" y="110" as="targetPoint" />
          </mxGeometry>
        </mxCell>
        <mxCell id="3_sBtNSPQGxRUfOqjnBE-27" value="" style="html=1;verticalAlign=bottom;endArrow=block;rounded=0;strokeColor=#0E8088;strokeWidth=2;fontColor=#000000;fillColor=#F694C1;entryX=0;entryY=0.5;entryDx=0;entryDy=0;entryPerimeter=0;" parent="1" target="3_sBtNSPQGxRUfOqjnBE-13" edge="1">
          <mxGeometry width="80" relative="1" as="geometry">
            <mxPoint x="180" y="220" as="sourcePoint" />
            <mxPoint x="465" y="120" as="targetPoint" />
          </mxGeometry>
        </mxCell>
        <mxCell id="3_sBtNSPQGxRUfOqjnBE-28" value="" style="html=1;verticalAlign=bottom;endArrow=block;rounded=0;strokeColor=#0E8088;strokeWidth=2;fontColor=#000000;fillColor=#F694C1;entryX=0;entryY=0.5;entryDx=0;entryDy=0;entryPerimeter=0;" parent="1" target="3_sBtNSPQGxRUfOqjnBE-14" edge="1">
          <mxGeometry width="80" relative="1" as="geometry">
            <mxPoint x="180" y="220" as="sourcePoint" />
            <mxPoint x="475" y="130" as="targetPoint" />
          </mxGeometry>
        </mxCell>
        <mxCell id="3_sBtNSPQGxRUfOqjnBE-1" value="ผู้ใช้ที่เป็นนักศึกษาทุนของมหาวิทยาลัยรังสิต" style="shape=umlActor;verticalLabelPosition=bottom;verticalAlign=top;html=1;rounded=1;strokeWidth=2;fillColor=none;" parent="1" vertex="1">
          <mxGeometry x="140" y="180" width="30" height="60" as="geometry" />
        </mxCell>
        <mxCell id="3_sBtNSPQGxRUfOqjnBE-29" value="" style="html=1;verticalAlign=bottom;endArrow=block;rounded=0;strokeColor=#0E8088;strokeWidth=2;fontColor=#000000;fillColor=#F694C1;entryX=0.024;entryY=0.685;entryDx=0;entryDy=0;entryPerimeter=0;" parent="1" target="3_sBtNSPQGxRUfOqjnBE-11" edge="1">
          <mxGeometry width="80" relative="1" as="geometry">
            <mxPoint x="180" y="420" as="sourcePoint" />
            <mxPoint x="450" y="110" as="targetPoint" />
          </mxGeometry>
        </mxCell>
        <mxCell id="3_sBtNSPQGxRUfOqjnBE-30" value="" style="html=1;verticalAlign=bottom;endArrow=block;rounded=0;strokeColor=#0E8088;strokeWidth=2;fontColor=#000000;fillColor=#F694C1;entryX=0;entryY=0.5;entryDx=0;entryDy=0;entryPerimeter=0;" parent="1" target="3_sBtNSPQGxRUfOqjnBE-16" edge="1">
          <mxGeometry width="80" relative="1" as="geometry">
            <mxPoint x="180" y="420" as="sourcePoint" />
            <mxPoint x="425" y="380" as="targetPoint" />
          </mxGeometry>
        </mxCell>
        <mxCell id="3_sBtNSPQGxRUfOqjnBE-2" value="ผู้ใช้ที่เป็นอาจารย์หรือหน่วยงานที่จัดกิจกรรม" style="shape=umlActor;verticalLabelPosition=bottom;verticalAlign=top;html=1;rounded=1;strokeWidth=2;fillColor=none;" parent="1" vertex="1">
          <mxGeometry x="140" y="370" width="30" height="60" as="geometry" />
        </mxCell>
        <mxCell id="3_sBtNSPQGxRUfOqjnBE-31" value="" style="html=1;verticalAlign=bottom;endArrow=block;rounded=0;strokeColor=#0E8088;strokeWidth=2;fontColor=#000000;fillColor=#F694C1;entryX=1;entryY=0.5;entryDx=0;entryDy=0;entryPerimeter=0;" parent="1" target="3_sBtNSPQGxRUfOqjnBE-18" edge="1">
          <mxGeometry width="80" relative="1" as="geometry">
            <mxPoint x="890" y="420" as="sourcePoint" />
            <mxPoint x="810" y="490" as="targetPoint" />
          </mxGeometry>
        </mxCell>
        <mxCell id="3_sBtNSPQGxRUfOqjnBE-32" value="" style="html=1;verticalAlign=bottom;endArrow=block;rounded=0;strokeColor=#0E8088;strokeWidth=2;fontColor=#000000;fillColor=#F694C1;entryX=1;entryY=0.5;entryDx=0;entryDy=0;entryPerimeter=0;" parent="1" target="3_sBtNSPQGxRUfOqjnBE-19" edge="1">
          <mxGeometry width="80" relative="1" as="geometry">
            <mxPoint x="890" y="420" as="sourcePoint" />
            <mxPoint x="720" y="320" as="targetPoint" />
          </mxGeometry>
        </mxCell>
        <mxCell id="3_sBtNSPQGxRUfOqjnBE-33" value="" style="html=1;verticalAlign=bottom;endArrow=block;rounded=0;strokeColor=#0E8088;strokeWidth=2;fontColor=#000000;fillColor=#F694C1;entryX=1;entryY=0.5;entryDx=0;entryDy=0;entryPerimeter=0;" parent="1" target="3_sBtNSPQGxRUfOqjnBE-16" edge="1">
          <mxGeometry width="80" relative="1" as="geometry">
            <mxPoint x="890" y="420" as="sourcePoint" />
            <mxPoint x="720" y="420" as="targetPoint" />
          </mxGeometry>
        </mxCell>
        <mxCell id="3_sBtNSPQGxRUfOqjnBE-34" value="" style="html=1;verticalAlign=bottom;endArrow=block;rounded=0;strokeColor=#0E8088;strokeWidth=2;fontColor=#000000;fillColor=#F694C1;entryX=1;entryY=0.5;entryDx=0;entryDy=0;entryPerimeter=0;" parent="1" target="3_sBtNSPQGxRUfOqjnBE-11" edge="1">
          <mxGeometry width="80" relative="1" as="geometry">
            <mxPoint x="890" y="420" as="sourcePoint" />
            <mxPoint x="720" y="420" as="targetPoint" />
          </mxGeometry>
        </mxCell>
        <mxCell id="3_sBtNSPQGxRUfOqjnBE-35" value="&amp;lt;&amp;lt;include&amp;gt;&amp;gt;" style="html=1;verticalAlign=bottom;endArrow=block;rounded=0;strokeColor=#0E8088;strokeWidth=2;fontColor=#000000;fillColor=#F694C1;entryX=0.5;entryY=0;entryDx=0;entryDy=0;entryPerimeter=0;exitX=0.5;exitY=1;exitDx=0;exitDy=0;exitPerimeter=0;dashed=1;labelBackgroundColor=none;" parent="1" source="3_sBtNSPQGxRUfOqjnBE-16" target="3_sBtNSPQGxRUfOqjnBE-17" edge="1">
          <mxGeometry width="80" relative="1" as="geometry">
            <mxPoint x="370" y="340" as="sourcePoint" />
            <mxPoint x="450" y="340" as="targetPoint" />
          </mxGeometry>
        </mxCell>
        <mxCell id="3_sBtNSPQGxRUfOqjnBE-36" value="&amp;lt;&amp;lt;include&amp;gt;&amp;gt;" style="html=1;verticalAlign=bottom;endArrow=block;rounded=0;strokeColor=#0E8088;strokeWidth=2;fontColor=#000000;fillColor=#F694C1;entryX=0.5;entryY=0;entryDx=0;entryDy=0;entryPerimeter=0;dashed=1;exitX=0.5;exitY=1;exitDx=0;exitDy=0;exitPerimeter=0;labelBackgroundColor=none;" parent="1" source="3_sBtNSPQGxRUfOqjnBE-14" target="3_sBtNSPQGxRUfOqjnBE-15" edge="1">
          <mxGeometry width="80" relative="1" as="geometry">
            <mxPoint x="480" y="610" as="sourcePoint" />
            <mxPoint x="480" y="670" as="targetPoint" />
          </mxGeometry>
        </mxCell>
        <mxCell id="3_sBtNSPQGxRUfOqjnBE-37" value="&amp;lt;&amp;lt;extend&amp;gt;&amp;gt;" style="html=1;verticalAlign=bottom;endArrow=block;rounded=0;strokeColor=#0E8088;strokeWidth=2;fontColor=#000000;fillColor=#F694C1;entryX=1.005;entryY=0.567;entryDx=0;entryDy=0;entryPerimeter=0;exitX=0;exitY=0.5;exitDx=0;exitDy=0;exitPerimeter=0;dashed=1;labelBackgroundColor=none;" parent="1" source="3_sBtNSPQGxRUfOqjnBE-20" target="3_sBtNSPQGxRUfOqjnBE-16" edge="1">
          <mxGeometry x="-0.1128" y="6" width="80" relative="1" as="geometry">
            <mxPoint x="490" y="620" as="sourcePoint" />
            <mxPoint x="490" y="680" as="targetPoint" />
            <mxPoint as="offset" />
          </mxGeometry>
        </mxCell>
      </root>
    </mxGraphModel>
  </diagram>
</mxfile>
